<svg width="1420" height="790" viewBox="0 0 1420 790" fill="none" xmlns="http://www.w3.org/2000/svg">
<path d="M47.8746 765.398C54.3933 770.059 56.2557 777.518 61.8431 793.368C64.114 799.895 66.509 810.216 67.4307 816.677C68.3618 823.204 71.1557 826.933 75.8118 827.865C80.468 828.798 86.0553 825.068 90.7115 811.083C95.3676 797.098 116.786 770.992 124.236 765.398C131.686 759.804 156.829 750.48 174.522 744.886C192.216 739.292 197.337 729.968 195.009 725.306C192.216 719.712 180.109 721.577 169.866 725.306C159.888 728.939 142.86 742.089 140.067 739.292C137.273 736.495 167.072 713.186 172.66 707.592C178.247 701.998 183.486 692.954 177.316 688.012C172.66 684.283 165.21 688.945 160.554 693.606C155.898 698.268 131.686 727.171 121.442 742.089C111.199 757.006 91.6427 793.368 87.9178 793.368C84.1929 793.368 87.9178 780.315 93.5052 758.871C99.0926 737.427 117.717 707.592 128.892 690.809C141.929 671.23 185.697 659.145 185.697 646.989C185.697 636.733 174.522 637.665 169.866 639.53C164.607 641.636 144.723 657.245 142.86 654.448C140.998 651.651 145.654 646.056 147.517 643.259C149.379 640.462 164.279 619.018 156.829 614.356C149.379 609.695 139.135 621.815 134.479 632.071C130.844 640.079 87.9178 743.954 86.0553 742.089C84.1929 740.224 83.2617 697.336 86.0553 677.756C88.849 658.177 125.167 604.101 132.617 591.98C144.078 573.333 150.31 542.565 139.135 538.836C127.961 535.106 114.127 557.877 110.267 573.333C105.611 591.98 98.1613 632.071 87.9178 630.206C83.2617 628.342 86.9866 590.115 87.9178 577.995C88.849 565.874 91.6425 522.364 78.6055 520.189C67.4307 518.324 61.8432 530.445 60.9121 549.092C60.1624 564.107 70.2244 610.627 66.4995 611.559C62.7746 612.492 53.7729 560.86 34.8377 544.43C20.869 532.309 12.488 544.43 15.2818 556.551C17.8294 567.603 51.1074 616.904 56.256 626.477C62.7744 638.598 67.4307 671.23 62.7746 674.027C58.1184 676.824 28.3191 631.139 19.0068 619.018C9.69445 606.898 -0.549088 612.492 0.382143 624.612C1.31337 636.733 23.6629 660.974 33.9064 671.23C44.15 681.486 57.1872 698.268 62.7746 712.254C68.362 726.239 70.2244 756.074 67.4307 756.074C64.637 756.074 59.0144 733.37 36.7001 707.592C24.5941 693.606 10.3181 677.385 3.17583 673.095C-6.13647 667.501 -10.7929 670.298 -13.5863 672.162C-16.3798 674.027 -17.3112 680.553 -13.5863 686.148C-9.86139 691.742 24.0394 722.926 20.8692 725.306C17.1441 728.104 -9.86139 702.93 -14.5175 699.201C-19.1737 695.471 -27.5548 694.539 -29.4173 697.336C-31.9564 701.149 -32.2111 707.592 -28.4861 713.186C-24.7611 718.78 -15.4489 725.306 -8.93033 729.968C-1.944 734.964 12.5716 739.89 11.5568 743.954C10.6255 747.683 0.382061 744.886 -2.41181 744.886C-5.20567 744.886 -9.86165 745.818 -10.7929 750.48C-11.7241 755.142 -9.86165 759.804 -2.41181 762.601C5.03804 765.398 41.356 760.736 47.8746 765.398Z" fill="#FF69A8" stroke="#8D2A54" stroke-width="3.91111"/>
<path d="M157.195 835.615H157.641C164.855 835.615 170.595 829.565 170.961 822.36C171.172 818.225 171.59 813.922 172.346 810.384C174.526 800.193 188.096 794.847 197.543 793.391C206.99 791.935 223.704 782.472 229.518 771.552C235.332 760.632 227.338 754.08 220.071 754.808C212.804 755.536 206.99 760.632 203.357 762.816C199.723 765 193.909 763.544 193.909 756.992C193.909 750.44 209.17 741.704 217.891 733.696C226.611 725.688 237.512 711.856 237.512 700.208C237.512 688.56 226.611 690.016 222.251 692.2C217.891 694.384 210.624 702.392 206.263 708.944C201.903 715.496 192.456 717.68 191.003 708.944C189.549 700.208 202.63 687.832 211.35 684.92C220.071 682.008 230.972 674.728 228.791 665.992C226.611 655.8 212.077 658.712 205.537 655.072C198.996 651.432 198.996 640.512 193.909 634.688C185.189 625.952 176.468 632.504 175.742 642.696C175.015 652.888 183.009 660.896 184.462 666.72C185.916 672.544 182.282 683.464 176.468 683.464C170.655 683.464 169.928 673.272 170.655 664.536C171.381 655.8 167.021 649.976 161.934 649.976C156.847 649.976 151.76 656.528 151.034 663.808C150.307 671.088 156.121 687.104 153.214 690.744C150.307 694.384 139.406 691.472 132.866 691.472C126.325 691.472 120.512 695.84 120.512 702.392C120.512 708.944 129.232 712.584 136.499 711.128C150.307 708.944 156.121 710.4 163.388 716.224C172.108 722.048 169.201 759.176 163.388 764.272C157.574 769.368 153.94 767.184 151.76 763.544C149.58 759.904 155.394 743.16 156.847 738.064C158.301 732.968 158.301 722.048 151.034 721.32C143.766 720.592 139.406 731.512 137.953 736.608C136.499 741.704 129.959 741.704 125.599 738.792C121.238 735.88 110.338 734.424 105.251 738.792C100.164 743.16 100.164 751.896 105.978 756.264C111.791 760.632 124.872 762.816 124.872 768.64C124.872 774.464 111.065 772.28 105.251 773.008C99.4372 773.736 95.0769 778.832 95.0769 783.2C95.0769 787.568 100.891 791.935 105.251 793.391C109.611 794.847 129.232 796.303 135.773 804.311C139.771 809.206 146.547 820.363 149.197 828.819C150.309 832.365 153.479 835.615 157.195 835.615Z" fill="#C6CC76" stroke="#6E7328" stroke-width="2.66234"/>
<path d="M165.961 692.515C163.299 692.515 161.302 689.52 162.301 687.856C163.698 685.527 167.625 685.527 168.624 686.858C169.622 688.189 168.624 692.515 165.961 692.515Z" stroke="#6E7328" stroke-width="1.99675"/>
<path d="M185.597 650.916C182.935 649.918 182.269 645.259 185.597 643.595C188.259 642.263 192.253 644.26 192.586 646.923C192.918 649.585 188.259 651.914 185.597 650.916Z" stroke="#6E7328" stroke-width="1.99675"/>
<path d="M114.046 789.357C110.053 788.692 110.053 784.365 112.382 784.365C114.379 784.365 119.371 784.365 119.371 785.696C119.371 787.028 118.04 790.023 114.046 789.357Z" stroke="#6E7328" stroke-width="1.99675"/>
<path d="M140.004 799.009C138.34 795.015 138.008 790.689 140.004 790.023C142.334 789.025 144.996 791.687 146.66 796.679C148.324 801.671 141.668 803.002 140.004 799.009Z" stroke="#6E7328" stroke-width="1.99675"/>
<path d="M197.909 784.365C194.581 782.702 198.575 778.375 199.906 778.375C203.234 777.377 204.232 779.706 204.232 781.038C204.232 782.369 201.237 786.029 197.909 784.365Z" stroke="#6E7328" stroke-width="1.99675"/>
<path d="M216.213 771.72C214.549 767.726 219.874 768.392 220.206 764.731C220.539 759.074 227.448 761.202 225.531 768.392C224.2 773.384 217.574 774.985 216.213 771.72Z" stroke="#6E7328" stroke-width="1.99675"/>
<path d="M156.643 781.039C154.979 780.373 153.981 776.047 159.971 775.381C162.19 775.381 166.494 775.98 165.961 778.376C165.296 781.372 158.307 781.704 156.643 781.039Z" stroke="#6E7328" stroke-width="1.99675"/>
<path d="M137.008 758.407C133.681 756.744 137.674 752.417 139.005 752.417C142.333 751.419 143.332 753.748 143.332 755.08C143.332 756.411 140.336 760.071 137.008 758.407Z" stroke="#6E7328" stroke-width="1.99675"/>
<path d="M114.046 752.417C110.052 753.083 107.39 745.429 109.054 743.765C111.383 741.768 114.711 745.096 115.71 746.427C116.708 747.758 118.039 751.752 114.046 752.417Z" stroke="#6E7328" stroke-width="1.99675"/>
<path d="M146.993 734.78C144.996 733.449 147.658 728.79 149.988 728.79C152.983 728.79 153.316 731.452 153.316 732.783C153.316 735.445 148.99 736.111 146.993 734.78Z" stroke="#6E7328" stroke-width="1.99675"/>
<path d="M173.949 756.411C173.283 753.416 174.614 748.757 177.277 748.424C178.941 748.424 179.606 750.421 179.273 753.083C178.941 755.746 174.614 759.406 173.949 756.411Z" stroke="#6E7328" stroke-width="1.99675"/>
<path d="M215.547 728.79C213.218 728.79 214.549 722.799 216.879 722.799C218.875 722.799 220.206 723.798 220.206 724.796C220.206 725.794 217.877 728.79 215.547 728.79Z" stroke="#6E7328" stroke-width="1.99675"/>
<path d="M226.862 706.493C224.865 705.827 225.531 700.502 228.193 700.17C229.857 699.837 232.852 700.17 233.185 702.166C233.518 704.163 228.859 707.158 226.862 706.493Z" stroke="#6E7328" stroke-width="1.99675"/>
<path d="M208.892 674.876C207.228 670.883 212.553 671.548 212.886 667.887C213.218 662.23 220.128 664.358 218.21 671.548C216.879 676.54 210.253 678.142 208.892 674.876Z" stroke="#6E7328" stroke-width="1.99675"/>
<path d="M188.259 680.867C186.262 679.536 188.925 674.877 191.254 674.877C194.249 674.877 194.582 677.539 194.582 678.87C194.582 681.533 190.256 682.198 188.259 680.867Z" stroke="#6E7328" stroke-width="1.99675"/>
<path d="M189.923 723.797C185.929 724.463 183.267 716.809 184.931 715.145C187.261 713.148 190.588 716.476 191.587 717.807C192.585 719.138 193.916 723.132 189.923 723.797Z" stroke="#6E7328" stroke-width="1.99675"/>
<path d="M158.308 707.157C154.314 706.491 154.314 702.165 156.644 702.165H156.644C158.641 702.165 163.633 702.165 163.633 703.496C163.633 704.827 162.301 707.823 158.308 707.157Z" stroke="#6E7328" stroke-width="1.99675"/>
<path d="M130.353 701.832C127.026 700.168 131.019 695.842 132.35 695.842C135.678 694.844 136.676 697.173 136.676 698.504C136.676 699.836 133.681 703.496 130.353 701.832Z" stroke="#6E7328" stroke-width="1.99675"/>
<path d="M1156.21 626.059C1230.08 562.74 1360.1 610.939 1393.36 657.161C1403.73 640.746 1422.13 613.405 1440.88 626.059C1458.16 637.722 1442.61 660.185 1430.51 670.12C1439.15 676.168 1454.7 709.43 1434.4 717.638C1414.97 725.491 1398.69 700.647 1393.36 686.103C1381.7 703.814 1370.03 722.389 1336.34 743.988C1287.09 775.56 1232.67 779.41 1173.05 756.084C1126.82 737.992 1098.75 675.304 1156.21 626.059Z" fill="#FFBC55"/>
<path fill-rule="evenodd" clip-rule="evenodd" d="M1380.13 705.159C1370.8 717.222 1358.21 729.968 1336.34 743.989C1287.09 775.56 1232.67 779.411 1173.05 756.084C1159.96 750.962 1148.33 742.264 1139.68 731.309C1160.4 743.29 1190.62 751.63 1238.29 753.99C1302.45 757.166 1350.1 725.536 1380.13 705.159Z" fill="#ED9712"/>
<path d="M1156.21 626.059C1230.08 562.74 1360.1 610.939 1393.36 657.161C1403.73 640.746 1422.13 613.405 1440.88 626.059C1458.16 637.722 1442.61 660.185 1430.51 670.12C1439.15 676.168 1454.7 709.43 1434.4 717.638C1415.39 725.321 1398.69 700.647 1393.36 686.103C1381.7 703.814 1370.03 722.389 1336.34 743.988C1287.09 775.56 1232.67 779.41 1173.05 756.084C1126.82 737.992 1098.75 675.304 1156.21 626.059Z" stroke="#B66E00" stroke-width="3.45582"/>
<circle cx="1169.17" cy="670.984" r="13.8233" fill="white" stroke="#B66E00" stroke-width="2.59186"/>
<circle cx="1169.17" cy="670.984" r="9.3955" fill="black"/>
<circle cx="1172.3" cy="663.677" r="3.13183" fill="white"/>
<circle cx="1166.56" cy="668.375" r="1.56592" fill="white"/>
<circle cx="1234.83" cy="670.984" r="13.8233" fill="white" stroke="#B66E00" stroke-width="2.59186"/>
<circle cx="1234.83" cy="670.984" r="9.3955" fill="black"/>
<circle cx="1232.22" cy="668.375" r="1.56592" fill="white"/>
<circle cx="1237.96" cy="663.677" r="3.13183" fill="white"/>
<path d="M1193.95 679.192C1193.95 682.936 1195.59 690.423 1202.15 690.423C1208.72 690.423 1210.36 682.936 1210.36 679.192" stroke="#B66E00" stroke-width="3.45582" stroke-linecap="round"/>
<path d="M1272.41 702.088C1272.39 701.134 1271.6 700.374 1270.65 700.391C1269.69 700.408 1268.94 701.195 1268.95 702.149L1272.41 702.088ZM1291.46 725.327L1290.92 723.686L1291.46 725.327ZM1294.13 706.338L1294.46 704.643C1293.74 704.5 1293.01 704.829 1292.64 705.463C1292.27 706.096 1292.34 706.896 1292.81 707.456L1294.13 706.338ZM1288.37 683.515C1287.42 683.458 1286.6 684.185 1286.54 685.137C1286.49 686.09 1287.21 686.908 1288.16 686.965L1288.37 683.515ZM1268.95 702.149C1269.05 707.576 1271.6 714.646 1275.56 719.905C1279.49 725.114 1285.33 729.169 1292.01 726.968L1290.92 723.686C1286.41 725.176 1281.95 722.638 1278.32 717.826C1274.73 713.062 1272.49 706.683 1272.41 702.088L1268.95 702.149ZM1292.01 726.968C1294.64 726.099 1296.51 724.564 1297.7 722.619C1298.87 720.704 1299.32 718.501 1299.32 716.36C1299.32 712.14 1297.58 707.74 1295.45 705.22L1292.81 707.456C1294.4 709.332 1295.86 712.932 1295.86 716.36C1295.86 718.043 1295.51 719.576 1294.75 720.814C1294.01 722.024 1292.82 723.06 1290.92 723.686L1292.01 726.968ZM1293.79 708.033C1297.05 708.677 1302.03 709.055 1306.4 708.005C1308.6 707.478 1310.75 706.563 1312.44 705.032C1314.17 703.467 1315.32 701.335 1315.57 698.584L1312.13 698.268C1311.95 700.159 1311.2 701.491 1310.12 702.472C1309 703.487 1307.45 704.201 1305.6 704.645C1301.88 705.538 1297.43 705.23 1294.46 704.643L1293.79 708.033ZM1315.57 698.584C1315.84 695.629 1314.61 693.192 1312.67 691.289C1310.77 689.425 1308.13 688.012 1305.33 686.936C1299.71 684.781 1292.91 683.785 1288.37 683.515L1288.16 686.965C1292.5 687.222 1298.92 688.178 1304.09 690.163C1306.68 691.157 1308.82 692.361 1310.25 693.758C1311.64 695.115 1312.28 696.582 1312.13 698.268L1315.57 698.584Z" fill="#B66E00"/>
<path d="M1286.31 557.561C1294.26 560.86 1296.83 572.119 1290.63 583.984C1301.59 572.723 1313.73 570.457 1320.08 580.476C1327.62 592.375 1307.13 602.028 1297.61 606.509L1297.42 606.599L1247.34 598.443C1240.09 588.907 1228.16 568.017 1238.39 560.751C1248.62 553.485 1259.56 566.53 1263.75 573.96C1264.98 566.296 1274.45 552.64 1286.31 557.561Z" fill="#FFBC55"/>
<path d="M1247.34 597.846C1240.09 588.31 1228.16 567.42 1238.39 560.154C1248.62 552.888 1259.56 565.933 1263.76 573.364C1264.98 565.7 1274.45 552.043 1286.31 556.964C1294.26 560.263 1296.83 571.522 1290.63 583.387C1301.59 572.127 1313.73 569.86 1320.08 579.879C1327.67 591.859 1306.85 601.561 1297.42 606.002" stroke="#B66E00" stroke-width="3.45582" stroke-linecap="round" stroke-linejoin="round"/>
<path d="M1144.9 689.576C1147.22 690.291 1149.48 690.521 1151.25 690.299C1152.98 690.082 1154.44 689.403 1154.84 688.113C1155.24 686.823 1154.41 685.442 1153.1 684.291C1151.76 683.11 1149.76 682.033 1147.44 681.318C1145.11 680.603 1142.86 680.373 1141.08 680.595C1139.35 680.812 1137.89 681.491 1137.5 682.781C1137.1 684.071 1137.93 685.452 1139.24 686.604C1140.58 687.785 1142.57 688.861 1144.9 689.576Z" fill="#FFC5DD" stroke="#FFC5DD" stroke-width="0.863954"/>
<path d="M1258.89 689.576C1256.56 690.291 1254.31 690.521 1252.53 690.299C1250.8 690.082 1249.34 689.403 1248.95 688.113C1248.55 686.823 1249.38 685.442 1250.69 684.291C1252.03 683.11 1254.02 682.033 1256.35 681.318C1258.67 680.603 1260.93 680.373 1262.7 680.595C1264.43 680.812 1265.89 681.491 1266.29 682.781C1266.69 684.071 1265.86 685.452 1264.55 686.604C1263.21 687.785 1261.21 688.861 1258.89 689.576Z" fill="#FFC5DD" stroke="#FFC5DD" stroke-width="0.863954"/>
<path d="M1174.1 155.88C1204.14 130.129 1257.02 149.731 1270.55 168.529C1274.76 161.853 1282.25 150.734 1289.87 155.88C1296.9 160.623 1290.57 169.758 1285.66 173.799C1289.17 176.259 1295.49 189.786 1287.24 193.124C1279.34 196.318 1272.71 186.214 1270.55 180.299C1265.8 187.502 1261.06 195.057 1247.36 203.841C1227.33 216.681 1205.19 218.246 1180.95 208.76C1162.15 201.402 1150.73 175.907 1174.1 155.88Z" fill="#C6CC76"/>
<path fill-rule="evenodd" clip-rule="evenodd" d="M1265.17 188.049C1261.37 192.955 1256.25 198.139 1247.36 203.841C1227.33 216.681 1205.19 218.247 1180.95 208.76C1175.63 206.677 1170.89 203.139 1167.38 198.684C1175.8 203.557 1188.09 206.948 1207.48 207.908C1233.57 209.2 1252.95 196.336 1265.17 188.049Z" fill="#ADB367"/>
<path d="M1174.1 155.88C1204.14 130.129 1257.02 149.731 1270.55 168.529C1274.76 161.853 1282.25 150.734 1289.87 155.88C1296.9 160.623 1290.57 169.758 1285.66 173.799C1289.17 176.259 1295.49 189.786 1287.24 193.124C1279.51 196.249 1272.71 186.214 1270.55 180.299C1265.8 187.502 1261.06 195.057 1247.36 203.841C1227.33 216.681 1205.19 218.246 1180.95 208.76C1162.15 201.402 1150.73 175.907 1174.1 155.88Z" stroke="#6E7328" stroke-width="1.40545"/>
<circle cx="1179.19" cy="173.975" r="5.79749" fill="white" stroke="#6E7328" stroke-width="1.05409"/>
<circle cx="1179.19" cy="173.975" r="3.95283" fill="black"/>
<circle cx="1180.51" cy="170.901" r="1.31761" fill="white"/>
<circle cx="1178.09" cy="172.877" r="0.658805" fill="white"/>
<circle cx="1206.17" cy="174.055" r="5.71714" fill="white" stroke="#6E7328" stroke-width="1.05409"/>
<circle cx="1206.17" cy="174.055" r="3.89257" fill="black"/>
<circle cx="1205.09" cy="172.974" r="0.648761" fill="white"/>
<circle cx="1207.46" cy="171.027" r="1.29752" fill="white"/>
<path d="M1189.57 177.488C1189.57 179.011 1190.24 182.056 1192.91 182.056C1195.58 182.056 1196.25 179.011 1196.25 177.488" stroke="#6E7328" stroke-width="1.40545" stroke-linecap="round"/>
<path d="M1221.36 186.8C1221.35 186.412 1221.03 186.103 1220.64 186.11C1220.25 186.117 1219.94 186.437 1219.95 186.825L1221.36 186.8ZM1229.11 196.251L1228.89 195.584L1229.11 196.251ZM1230.19 188.529L1230.33 187.839C1230.03 187.781 1229.74 187.915 1229.58 188.173C1229.43 188.43 1229.46 188.756 1229.65 188.984L1230.19 188.529ZM1227.85 179.247C1227.46 179.224 1227.13 179.519 1227.1 179.907C1227.08 180.294 1227.38 180.627 1227.76 180.65L1227.85 179.247ZM1219.95 186.825C1219.99 189.032 1221.03 191.908 1222.64 194.046C1224.23 196.165 1226.61 197.814 1229.33 196.919L1228.89 195.584C1227.05 196.19 1225.24 195.158 1223.76 193.201C1222.3 191.264 1221.39 188.669 1221.36 186.8L1219.95 186.825ZM1229.33 196.919C1230.4 196.565 1231.16 195.941 1231.64 195.15C1232.12 194.371 1232.3 193.475 1232.3 192.605C1232.3 190.888 1231.6 189.099 1230.73 188.074L1229.65 188.984C1230.3 189.746 1230.9 191.21 1230.9 192.605C1230.9 193.289 1230.75 193.913 1230.44 194.416C1230.14 194.908 1229.66 195.329 1228.89 195.584L1229.33 196.919ZM1230.05 189.218C1231.38 189.48 1233.4 189.634 1235.18 189.207C1236.08 188.992 1236.95 188.62 1237.64 187.997C1238.34 187.361 1238.81 186.494 1238.91 185.375L1237.51 185.247C1237.44 186.016 1237.13 186.557 1236.69 186.957C1236.24 187.369 1235.61 187.66 1234.85 187.84C1233.34 188.203 1231.53 188.078 1230.33 187.839L1230.05 189.218ZM1238.91 185.375C1239.02 184.174 1238.52 183.182 1237.73 182.409C1236.96 181.651 1235.88 181.076 1234.74 180.638C1232.46 179.761 1229.7 179.356 1227.85 179.247L1227.76 180.65C1229.53 180.755 1232.14 181.143 1234.24 181.95C1235.29 182.355 1236.17 182.845 1236.75 183.413C1237.31 183.965 1237.57 184.561 1237.51 185.247L1238.91 185.375Z" fill="#6E7328"/>
<path d="M1227.01 128.022C1230.24 129.364 1231.29 133.943 1228.77 138.768C1233.22 134.189 1238.16 133.267 1240.74 137.342C1243.81 142.181 1235.48 146.107 1231.61 147.929L1231.53 147.966L1211.16 144.649C1208.21 140.77 1203.36 132.275 1207.52 129.32C1211.68 126.365 1216.13 131.67 1217.84 134.692C1218.33 131.575 1222.19 126.021 1227.01 128.022Z" fill="#C6CC76"/>
<path d="M1211.16 144.406C1208.21 140.528 1203.36 132.032 1207.52 129.077C1211.68 126.122 1216.13 131.427 1217.84 134.449C1218.33 131.332 1222.19 125.778 1227.01 127.779C1230.25 129.121 1231.29 133.7 1228.77 138.526C1233.22 133.946 1238.16 133.024 1240.74 137.099C1243.83 141.971 1235.36 145.917 1231.53 147.723" stroke="#6E7328" stroke-width="1.40545" stroke-linecap="round" stroke-linejoin="round"/>
<path d="M1169.5 181.711C1170.44 182.002 1171.36 182.096 1172.08 182.005C1172.79 181.917 1173.38 181.641 1173.54 181.117C1173.7 180.592 1173.37 180.03 1172.83 179.562C1172.29 179.082 1171.48 178.644 1170.53 178.353C1169.59 178.062 1168.67 177.969 1167.95 178.059C1167.24 178.147 1166.65 178.423 1166.49 178.948C1166.33 179.473 1166.66 180.034 1167.2 180.503C1167.74 180.983 1168.55 181.421 1169.5 181.711Z" fill="#FFC5DD" stroke="#FFC5DD" stroke-width="0.351363"/>
<path d="M1215.86 181.711C1214.91 182.002 1213.99 182.096 1213.27 182.005C1212.57 181.917 1211.98 181.641 1211.81 181.117C1211.65 180.592 1211.99 180.03 1212.52 179.562C1213.07 179.082 1213.88 178.644 1214.82 178.353C1215.77 178.062 1216.69 177.969 1217.41 178.059C1218.11 178.147 1218.71 178.423 1218.87 178.948C1219.03 179.473 1218.69 180.034 1218.16 180.503C1217.61 180.983 1216.8 181.421 1215.86 181.711Z" fill="#FFC5DD" stroke="#FFC5DD" stroke-width="0.351363"/>
<path d="M1056.58 74.2141C1080.85 53.4129 1123.56 69.2472 1134.49 84.4319C1137.9 79.0392 1143.94 70.0574 1150.1 74.2141C1155.78 78.0458 1150.67 85.4253 1146.7 88.6893C1149.53 90.6761 1154.64 101.603 1147.97 104.3C1141.59 106.88 1136.24 98.7179 1134.49 93.9401C1130.66 99.7586 1126.83 105.861 1115.76 112.956C1099.58 123.328 1081.7 124.593 1062.11 116.93C1046.93 110.986 1037.71 90.3923 1056.58 74.2141Z" fill="#FF69A8"/>
<path fill-rule="evenodd" clip-rule="evenodd" d="M1130.15 100.2C1127.08 104.163 1122.94 108.351 1115.76 112.957C1099.58 123.329 1081.7 124.594 1062.11 116.93C1057.81 115.248 1053.99 112.39 1051.15 108.791C1057.96 112.727 1067.88 115.467 1083.55 116.242C1104.62 117.286 1120.28 106.895 1130.15 100.2Z" fill="#E65F97"/>
<path d="M1056.58 74.2141C1080.85 53.4129 1123.56 69.2472 1134.49 84.4319C1137.9 79.0392 1143.94 70.0574 1150.1 74.2141C1155.78 78.0458 1150.67 85.4253 1146.7 88.6893C1149.53 90.6761 1154.64 101.603 1147.97 104.3C1141.73 106.824 1136.24 98.7179 1134.49 93.9401C1130.66 99.7586 1126.83 105.861 1115.76 112.956C1099.58 123.328 1081.7 124.593 1062.11 116.93C1046.93 110.986 1037.71 90.3923 1056.58 74.2141Z" stroke="#8D2A54" stroke-width="1.13531"/>
<circle cx="1060.73" cy="88.863" r="4.65154" fill="white" stroke="#8D2A54" stroke-width="0.851481"/>
<circle cx="1060.73" cy="88.8632" r="3.16935" fill="black"/>
<circle cx="1061.78" cy="86.3978" r="1.05645" fill="white"/>
<circle cx="1059.85" cy="87.9828" r="0.528225" fill="white"/>
<circle cx="1082.58" cy="88.7997" r="4.71475" fill="white" stroke="#8D2A54" stroke-width="0.851481"/>
<circle cx="1082.58" cy="88.7998" r="3.21675" fill="black"/>
<circle cx="1081.69" cy="87.9062" r="0.536126" fill="white"/>
<circle cx="1083.65" cy="86.2978" r="1.07225" fill="white"/>
<path d="M1069.27 91.9536C1069.27 93.2781 1069.78 95.9272 1071.83 95.9272C1073.87 95.9272 1074.38 93.2781 1074.38 91.9536" stroke="#8D2A54" stroke-width="1.13531" stroke-linecap="round"/>
<path d="M1094.76 99.1912C1094.75 98.8777 1094.49 98.6281 1094.18 98.6337C1093.86 98.6393 1093.61 98.8979 1093.62 99.2113L1094.76 99.1912ZM1101.02 106.826L1100.84 106.287L1101.02 106.826ZM1101.89 100.588L1102 100.031C1101.76 99.9838 1101.52 100.092 1101.4 100.3C1101.28 100.508 1101.3 100.771 1101.46 100.955L1101.89 100.588ZM1100 93.0896C1099.69 93.071 1099.42 93.3096 1099.4 93.6226C1099.38 93.9356 1099.62 94.2043 1099.93 94.2229L1100 93.0896ZM1093.62 99.2113C1093.65 100.994 1094.49 103.317 1095.79 105.045C1097.08 106.756 1099 108.088 1101.19 107.365L1100.84 106.287C1099.35 106.776 1097.89 105.943 1096.7 104.361C1095.52 102.797 1094.78 100.701 1094.76 99.1912L1093.62 99.2113ZM1101.19 107.365C1102.06 107.079 1102.67 106.575 1103.06 105.936C1103.45 105.307 1103.6 104.583 1103.6 103.88C1103.6 102.493 1103.03 101.048 1102.32 100.22L1101.46 100.955C1101.98 101.571 1102.46 102.754 1102.46 103.88C1102.46 104.433 1102.35 104.937 1102.1 105.343C1101.85 105.741 1101.46 106.081 1100.84 106.287L1101.19 107.365ZM1101.78 101.144C1102.85 101.356 1104.49 101.48 1105.92 101.135C1106.65 100.962 1107.35 100.661 1107.91 100.158C1108.47 99.6443 1108.85 98.9438 1108.93 98.0402L1107.8 97.9364C1107.75 98.5577 1107.5 98.995 1107.14 99.3175C1106.78 99.6509 1106.27 99.8854 1105.66 100.031C1104.44 100.325 1102.98 100.223 1102 100.031L1101.78 101.144ZM1108.93 98.0402C1109.02 97.0694 1108.62 96.2688 1107.98 95.6436C1107.36 95.0313 1106.49 94.5671 1105.57 94.2137C1103.73 93.5054 1101.49 93.1782 1100 93.0896L1099.93 94.2229C1101.36 94.3075 1103.46 94.6215 1105.16 95.2735C1106.01 95.6002 1106.72 95.9959 1107.19 96.4547C1107.64 96.9006 1107.85 97.3823 1107.8 97.9364L1108.93 98.0402Z" fill="#8D2A54"/>
<path d="M1099.32 51.7115C1101.94 52.7953 1102.78 56.4942 1100.74 60.392C1104.34 56.6928 1108.33 55.9482 1110.42 59.2397C1112.89 63.1489 1106.16 66.3199 1103.04 67.7921L1102.97 67.8215L1086.52 65.1423C1084.14 62.0093 1080.22 55.1467 1083.58 52.7596C1086.94 50.3725 1090.53 54.658 1091.91 57.0991C1092.31 54.5814 1095.43 50.0948 1099.32 51.7115Z" fill="#FF69A8"/>
<path d="M1086.52 64.946C1084.14 61.813 1080.22 54.9504 1083.58 52.5633C1086.94 50.1762 1090.53 54.4617 1091.91 56.9029C1092.31 54.3851 1095.43 49.8985 1099.32 51.5152C1101.94 52.599 1102.78 56.2979 1100.74 60.1958C1104.34 56.4965 1108.33 55.752 1110.42 59.0434C1112.91 62.9788 1106.07 66.1662 1102.97 67.6252" stroke="#8D2A54" stroke-width="1.13531" stroke-linecap="round" stroke-linejoin="round"/>
<path d="M1052.87 95.0814C1053.63 95.3162 1054.37 95.3918 1054.95 95.3188C1055.52 95.2476 1056 95.0245 1056.13 94.6008C1056.26 94.177 1055.99 93.7232 1055.56 93.3449C1055.12 92.957 1054.46 92.6033 1053.7 92.3684C1052.94 92.1336 1052.19 92.058 1051.61 92.131C1051.04 92.2022 1050.56 92.4253 1050.43 92.849C1050.3 93.2728 1050.57 93.7266 1051 94.1049C1051.45 94.4928 1052.1 94.8465 1052.87 95.0814Z" fill="#FFC5DD" stroke="#FFC5DD" stroke-width="0.283827"/>
<path d="M1090.31 95.0814C1089.55 95.3162 1088.81 95.3918 1088.23 95.3188C1087.66 95.2476 1087.18 95.0245 1087.05 94.6008C1086.92 94.177 1087.19 93.7232 1087.62 93.3449C1088.06 92.957 1088.72 92.6033 1089.48 92.3684C1090.24 92.1336 1090.98 92.058 1091.57 92.131C1092.14 92.2022 1092.61 92.4253 1092.74 92.849C1092.88 93.2728 1092.6 93.7266 1092.17 94.1049C1091.73 94.4928 1091.08 94.8465 1090.31 95.0814Z" fill="#FFC5DD" stroke="#FFC5DD" stroke-width="0.283827"/>
<path d="M105.43 71.9349C97.9402 90.4403 114.049 91.1917 125.351 90.9721C147.238 87.886 192.372 62.5956 206.429 67.3116C215.801 70.4556 215.011 105.328 216.432 116.875C217.852 128.423 221.894 151.76 228.364 163.076C234.834 174.392 246.621 171.768 252.655 160.475C258.688 149.182 262.889 91.2267 272.54 74.4088C282.191 57.5909 332.193 63.9368 350.717 58.9204C369.242 53.9039 393.071 41.2009 370.978 26.7294C348.885 12.2578 287.084 14.789 283.017 3.95847C278.95 -6.87206 300.717 -71.2887 297.379 -85.7256C294.041 -100.162 280.323 -94.1751 274.545 -90.3376C268.767 -86.5001 253.58 -67.0468 246.102 -54.7946C238.624 -42.5424 228.961 -19.4712 216.943 -21.8985C204.925 -24.3259 199.912 -42.8545 195.603 -52.483C191.293 -62.1114 187.506 -92.9038 173.813 -99.423C160.12 -105.942 154.074 -88.396 150.93 -79.0219C147.786 -69.6478 147.749 -50.888 151.33 -37.6533C156.344 -19.1246 171.445 5.19497 169.259 16.0139C166.346 30.4392 111.984 55.7426 105.43 71.9349Z" fill="#F98585" stroke="#AA3737" stroke-width="3.45048"/>
<path d="M288.608 -88.284C269.447 -65.3128 237.26 2.5493 233.844 19.4602M233.844 19.4602C249.555 30.9939 348.18 32.8733 370.331 38.6673M233.844 19.4602C227.295 38.3782 244.225 120.561 237.885 162.843M233.844 19.4602C220.736 14.6442 132.343 62.3219 110.821 81.7359M233.844 19.4602C191.507 -1.85169 157.918 -42.5173 169.182 -93.9248" stroke="#AA3737" stroke-width="3.45048" stroke-dasharray="7.76 6.9"/>
</svg>
