<svg width="64" height="64" viewBox="0 0 64 64" fill="none" xmlns="http://www.w3.org/2000/svg">
<g clip-path="url(#clip0_1699_52141)">
<rect x="44.4459" y="10.4503" width="6.1" height="53.35" rx="3.05" transform="rotate(40 44.4459 10.4503)" fill="#9F6100" stroke="#402905" stroke-width="2"/>
<mask id="mask0_1699_52141" style="mask-type:alpha" maskUnits="userSpaceOnUse" x="11" y="11" width="55" height="59">
<rect x="47.3431" y="11.7422" width="24.3" height="55.35" transform="rotate(40 47.3431 11.7422)" fill="#D9D9D9"/>
</mask>
<g mask="url(#mask0_1699_52141)">
<rect x="44.4459" y="10.4498" width="6.1" height="53.35" rx="3.05" transform="rotate(40 44.4459 10.4498)" fill="#875200" stroke="#402905" stroke-width="2"/>
</g>
<path d="M41.304 25.5453L41.2421 25.468L41.1663 25.4043L38.0638 22.801L34.9613 20.1977L34.8855 20.1341L34.7986 20.0866L20.4482 12.2332C19.0539 11.4701 18.7062 9.62213 19.7279 8.4045C20.4072 7.595 21.5195 7.29554 22.5133 7.6546L40.32 14.0878L43.2864 16.5769L46.2529 19.0661L55.6804 35.4851C56.2066 36.4015 56.1048 37.5489 55.4256 38.3584C54.4039 39.576 52.5236 39.5546 51.53 38.3139L41.304 25.5453Z" fill="#A39F98" stroke="#5C5A57" stroke-width="2"/>
<mask id="mask1_1699_52141" style="mask-type:alpha" maskUnits="userSpaceOnUse" x="35" y="14" width="29" height="28">
<rect x="44.7398" y="14.8447" width="24.3" height="14.85" transform="rotate(40 44.7398 14.8447)" fill="#D9D9D9"/>
</mask>
<g mask="url(#mask1_1699_52141)">
<path d="M41.304 25.5453L41.2421 25.468L41.1663 25.4043L38.0638 22.801L34.9613 20.1977L34.8855 20.1341L34.7986 20.0866L20.4482 12.2332C19.0539 11.4701 18.7062 9.62213 19.7279 8.4045C20.4072 7.595 21.5195 7.29554 22.5133 7.6546L40.32 14.0878L43.2864 16.5769L46.2529 19.0661L55.6804 35.4851C56.2066 36.4015 56.1048 37.5489 55.4256 38.3584C54.4039 39.576 52.5236 39.5546 51.53 38.3139L41.304 25.5453Z" fill="#94918B" stroke="#5C5A57" stroke-width="2"/>
</g>
</g>
<defs>
<clipPath id="clip0_1699_52141">
<rect width="64" height="64" fill="white"/>
</clipPath>
</defs>
</svg>
