<svg width="48" height="48" viewBox="0 0 48 48" fill="none" xmlns="http://www.w3.org/2000/svg">
<g filter="url(#filter0_d_1116_19393)">
<rect x="6.59766" y="21.832" width="2.84766" height="13.2891" fill="#B66E00"/>
<rect x="38.5547" y="22.1484" width="2.84766" height="13.2891" fill="#B66E00"/>
<rect x="3.75" y="34.5" width="40.5" height="3.375" rx="1.6875" fill="#E7BF83"/>
<path d="M5.625 37.875H42.75V38.625C42.75 39.6605 41.9105 40.5 40.875 40.5H7.5C6.46447 40.5 5.625 39.6605 5.625 38.625V37.875Z" fill="#855100"/>
<path d="M4.38281 18.668H12.293V19.3359C12.293 20.8892 11.0338 22.1484 9.48047 22.1484H7.19531C5.64201 22.1484 4.38281 20.8892 4.38281 19.3359V18.668Z" fill="#FAB140"/>
<path d="M8.22074 12.9111C8.98578 11.7635 10.2737 11.0742 11.6529 11.0742H15.1406L12.293 18.668H4.38281L8.22074 12.9111Z" fill="#FAB140"/>
<path d="M12.293 18.668H20.2031V18.9609C20.2031 20.7213 18.776 22.1484 17.0156 22.1484H15.4805C13.7201 22.1484 12.293 20.7213 12.293 18.9609V18.668Z" fill="#F6EFE5"/>
<path d="M15.1406 11.0742H21.4688L20.2031 18.668H12.293L15.1406 11.0742Z" fill="#F6EFE5"/>
<path d="M35.707 18.668H27.7969V18.9609C27.7969 20.7213 29.224 22.1484 30.9844 22.1484H32.5195C34.2799 22.1484 35.707 20.7213 35.707 18.9609V18.668Z" fill="#F6EFE5"/>
<path d="M32.8594 11.0742H26.5312L27.7969 18.668H35.707L32.8594 11.0742Z" fill="#F6EFE5"/>
<path d="M20.2031 18.668H27.7969V18.9609C27.7969 20.7213 26.3698 22.1484 24.6094 22.1484H23.3906C21.6302 22.1484 20.2031 20.7213 20.2031 18.9609V18.668Z" fill="#FAB140"/>
<path d="M21.4688 11.0742H26.5312L27.7969 18.668H20.2031L21.4688 11.0742Z" fill="#FAB140"/>
<path d="M43.6172 18.668H35.707V18.9609C35.707 20.7213 37.1341 22.1484 38.8945 22.1484H40.4297C42.1901 22.1484 43.6172 20.7213 43.6172 18.9609V18.668Z" fill="#FAB140"/>
<path d="M39.7793 12.9111C39.0142 11.7635 37.7263 11.0742 36.3471 11.0742H32.8594L35.707 18.668H43.6172L39.7793 12.9111Z" fill="#FAB140"/>
<g style="mix-blend-mode:multiply">
<rect x="5.96484" y="18.3516" width="36.0703" height="1.26562" rx="0.632812" fill="#D9D9D9"/>
</g>
<path d="M28.3812 5.01844C29.092 5.52336 26.4398 7.6332 25.0249 8.625H23.7737C22.1942 7.66325 19.0847 5.3791 19.5462 4.79303C19.8424 4.34221 20.9282 4.83811 21.8167 5.55943C21.2244 4.80806 20.1484 3.22418 20.5827 2.89959C21.1257 2.49385 22.3596 3.66598 23.1493 5.01844C22.8203 3.84631 22.3596 1.44795 23.1493 1.23156C23.9391 1.00615 24.3339 2.85451 24.4326 4.29713C24.4984 2.98975 24.788 0.375 25.4198 0.375C26.0121 0.375 25.9627 2.67418 25.6666 4.29713C25.8804 3.54576 26.4563 2.06107 27.0486 2.1332C27.9864 2.22336 26.9499 4.8832 26.1108 6.32582C26.6866 5.73975 27.9469 4.65779 28.3812 5.01844Z" fill="#C6CC76"/>
<rect x="18.375" y="7.125" width="11.625" height="1.875" rx="0.75" fill="#F29C1F"/>
<path d="M19.5 9H28.875L28.366 13.3432C28.2553 14.2879 27.4549 15 26.5038 15H21.8712C20.9201 15 20.1197 14.2879 20.009 13.3432L19.5 9Z" fill="#D25627"/>
<path d="M19.7714 27.7987C20.2161 28.1302 18.5568 29.5154 17.6715 30.1666H16.8887C15.9005 29.5352 13.955 28.0355 14.2438 27.6507C14.429 27.3547 15.1084 27.6803 15.6643 28.1539C15.2937 27.6606 14.6205 26.6207 14.8923 26.4075C15.2319 26.1412 16.004 26.9107 16.4981 27.7987C16.2922 27.0291 16.004 25.4545 16.4981 25.3124C16.9921 25.1644 17.2392 26.3779 17.301 27.3251C17.3421 26.4667 17.5233 24.75 17.9186 24.75C18.2891 24.75 18.2582 26.2595 18.073 27.3251C18.2068 26.8318 18.567 25.857 18.9376 25.9044C19.5243 25.9636 18.8759 27.7099 18.3509 28.6571C18.7112 28.2723 19.4996 27.5619 19.7714 27.7987Z" fill="#C6CC76"/>
<rect x="13.125" y="29.0835" width="7.99219" height="1.26388" rx="0.631938" fill="#F29C1F"/>
<path d="M13.8516 30.3472H20.3906L19.9784 33.8379C19.9338 34.2154 19.6137 34.4999 19.2336 34.4999H15.0086C14.6284 34.4999 14.3084 34.2154 14.2638 33.8379L13.8516 30.3472Z" fill="#D25627"/>
<path d="M33.3769 27.7987C33.8215 28.1302 32.1622 29.5154 31.277 30.1666H30.4941C29.506 29.5352 27.5605 28.0355 27.8492 27.6507C28.0345 27.3547 28.7139 27.6803 29.2697 28.1539C28.8992 27.6606 28.226 26.6207 28.4977 26.4075C28.8374 26.1412 29.6094 26.9107 30.1035 27.7987C29.8977 27.0291 29.6094 25.4545 30.1035 25.3124C30.5976 25.1644 30.8447 26.3779 30.9064 27.3251C30.9476 26.4667 31.1288 24.75 31.524 24.75C31.8946 24.75 31.8637 26.2595 31.6784 27.3251C31.8122 26.8318 32.1725 25.857 32.5431 25.9044C33.1298 25.9636 32.4813 27.7099 31.9564 28.6571C32.3166 28.2723 33.1051 27.5619 33.3769 27.7987Z" fill="#C6CC76"/>
<rect x="26.7305" y="29.0835" width="7.99219" height="1.26388" rx="0.631938" fill="#F29C1F"/>
<path d="M27.457 30.3472H33.9961L33.5838 33.8379C33.5393 34.2154 33.2192 34.4999 32.839 34.4999H28.6141C28.2339 34.4999 27.9139 34.2154 27.8693 33.8379L27.457 30.3472Z" fill="#D25627"/>
</g>
<defs>
<filter id="filter0_d_1116_19393" x="0" y="0" width="49" height="50" filterUnits="userSpaceOnUse" color-interpolation-filters="sRGB">
<feFlood flood-opacity="0" result="BackgroundImageFix"/>
<feColorMatrix in="SourceAlpha" type="matrix" values="0 0 0 0 0 0 0 0 0 0 0 0 0 0 0 0 0 0 127 0" result="hardAlpha"/>
<feOffset dx="1" dy="2"/>
<feComposite in2="hardAlpha" operator="out"/>
<feColorMatrix type="matrix" values="0 0 0 0 0 0 0 0 0 0 0 0 0 0 0 0 0 0 0.25 0"/>
<feBlend mode="normal" in2="BackgroundImageFix" result="effect1_dropShadow_1116_19393"/>
<feBlend mode="normal" in="SourceGraphic" in2="effect1_dropShadow_1116_19393" result="shape"/>
</filter>
</defs>
</svg>
