<svg width="24" height="24" viewBox="0 0 24 24" fill="none" xmlns="http://www.w3.org/2000/svg">
<path d="M1.64476 17.3744C1.3396 19.0023 2.66194 18.7988 3.57739 18.5953C5.30659 17.9848 8.56153 15.1869 9.78214 15.3395C10.5959 15.4412 11.1045 18.2901 11.4096 19.2058C11.7148 20.1215 12.4268 21.9529 13.1388 22.7668C13.8508 23.5808 14.7663 23.1738 15.0714 22.1563C15.3766 21.1389 14.7663 16.3569 15.2749 14.8308C15.7835 13.3046 19.9539 12.9994 21.3779 12.2871C22.802 11.5749 24.5311 10.1505 22.4968 9.33657C20.4625 8.52261 15.4783 9.74354 14.9697 8.92959C14.4611 8.11563 15.1732 2.5197 14.6646 1.40052C14.156 0.281329 13.1388 0.993538 12.7319 1.40052C12.3251 1.80749 11.4096 3.63889 11.0027 4.75808C10.5959 5.87726 10.189 7.91215 9.17184 7.91215C8.15466 7.91215 7.44264 6.48773 6.93405 5.77552C6.42547 5.06331 5.61173 2.62145 4.39112 2.31621C3.17051 2.01098 2.96708 3.53714 2.86536 4.3511C2.76365 5.16505 3.0688 6.69122 3.57738 7.70866C4.28941 9.13308 5.91688 10.8627 5.91688 11.7784C5.91688 12.9994 1.91178 15.9499 1.64476 17.3744Z" fill="#F98585" stroke="#AA3737" stroke-width="0.296689"/>
<path d="M13.9093 1.33691C12.7284 3.51966 11.2256 9.56695 11.2256 10.9983M11.2256 10.9983C12.6927 11.6781 20.7438 10.211 22.6403 10.3184M11.2256 10.9983C11.0037 12.6443 13.7304 19.0494 13.9093 22.5919M11.2256 10.9983C10.0805 10.8219 3.6754 16.151 2.24409 18.0832M11.2256 10.9983C7.43259 9.96056 4.03323 7.20528 4.1048 2.83979" stroke="#AA3737" stroke-width="0.296689" stroke-dasharray="0.67 0.59"/>
</svg>
