<svg width="17" height="17" viewBox="0 0 17 17" fill="none" xmlns="http://www.w3.org/2000/svg">
<g filter="url(#filter0_d_2040_34480)">
<circle cx="8" cy="8" r="8" fill="#FFBC55"/>
<circle cx="8" cy="8" r="7" stroke="#FFBC55" stroke-width="2"/>
</g>
<path d="M5.50647 8.84H6.67647C6.69447 9.164 6.79347 9.419 6.97347 9.605C7.15347 9.785 7.38447 9.908 7.66647 9.974V8.273C6.31047 7.961 5.63247 7.37 5.63247 6.5C5.63247 6.02 5.82147 5.603 6.19947 5.249C6.57747 4.895 7.06647 4.691 7.66647 4.637V4.061H8.40447V4.646C9.01647 4.718 9.51147 4.94 9.88947 5.312C10.2735 5.678 10.4685 6.137 10.4745 6.689L9.27747 6.68C9.25347 6.176 8.96247 5.852 8.40447 5.708V7.355C9.02847 7.463 9.53247 7.676 9.91647 7.994C10.3005 8.312 10.4925 8.726 10.4925 9.236C10.4925 9.752 10.3095 10.175 9.94347 10.505C9.58347 10.835 9.07047 11.021 8.40447 11.063V11.72H7.66647V11.036C7.05447 10.952 6.54147 10.733 6.12747 10.379C5.71347 10.019 5.50647 9.524 5.50647 8.894C5.50647 8.876 5.50647 8.858 5.50647 8.84ZM8.40447 10.019C8.69247 9.995 8.92047 9.917 9.08847 9.785C9.26247 9.653 9.34947 9.482 9.34947 9.272C9.34947 8.912 9.03447 8.642 8.40447 8.462V10.019ZM6.77547 6.455C6.77547 6.803 7.07247 7.052 7.66647 7.202V5.681C7.38447 5.711 7.16547 5.798 7.00947 5.942C6.85347 6.086 6.77547 6.257 6.77547 6.455Z" fill="white"/>
<defs>
<filter id="filter0_d_2040_34480" x="0" y="0" width="17" height="17" filterUnits="userSpaceOnUse" color-interpolation-filters="sRGB">
<feFlood flood-opacity="0" result="BackgroundImageFix"/>
<feColorMatrix in="SourceAlpha" type="matrix" values="0 0 0 0 0 0 0 0 0 0 0 0 0 0 0 0 0 0 127 0" result="hardAlpha"/>
<feOffset dx="1" dy="1"/>
<feComposite in2="hardAlpha" operator="out"/>
<feColorMatrix type="matrix" values="0 0 0 0 0 0 0 0 0 0 0 0 0 0 0 0 0 0 0.25 0"/>
<feBlend mode="normal" in2="BackgroundImageFix" result="effect1_dropShadow_2040_34480"/>
<feBlend mode="normal" in="SourceGraphic" in2="effect1_dropShadow_2040_34480" result="shape"/>
</filter>
</defs>
</svg>
