<svg width="16" height="16" viewBox="0 0 16 16" fill="none" xmlns="http://www.w3.org/2000/svg">
<g filter="url(#filter0_d_1715_58713)">
<path d="M7.10392 12.3521C7.41433 12.5741 7.50302 12.9293 7.76908 13.684C7.87722 13.9948 7.99127 14.4863 8.03516 14.794C8.0795 15.1048 8.21254 15.2824 8.43426 15.3268C8.65598 15.3712 8.92205 15.1936 9.14377 14.5276C9.36549 13.8616 10.3854 12.6185 10.7402 12.3521C11.0949 12.0857 12.2922 11.6417 13.1348 11.3754C13.9773 11.109 14.2212 10.665 14.1103 10.443C13.9773 10.1766 13.4008 10.2654 12.913 10.443C12.4379 10.616 11.6271 11.2422 11.494 11.109C11.361 10.9758 12.78 9.86583 13.0461 9.59944C13.3121 9.33306 13.5616 8.90243 13.2678 8.66709C13.0461 8.4895 12.6913 8.71149 12.4696 8.93348C12.2479 9.15547 11.0949 10.5318 10.6071 11.2422C10.1193 11.9525 9.18811 13.684 9.01074 13.684C8.83336 13.684 9.01074 13.0625 9.2768 12.0413C9.54287 11.0202 10.4298 9.59944 10.9619 8.80028C11.5827 7.86793 13.6669 7.29247 13.6669 6.71359C13.6669 6.22521 13.1347 6.26961 12.913 6.35841C12.6626 6.45871 11.7157 7.20196 11.6271 7.06877C11.5384 6.93558 11.7601 6.66919 11.8488 6.536C11.9375 6.4028 12.647 5.38166 12.2922 5.15967C11.9375 4.93768 11.4497 5.51485 11.228 6.00323C11.0548 6.38453 9.01074 11.331 8.92205 11.2422C8.83336 11.1534 8.78902 9.11107 8.92205 8.17872C9.05508 7.24636 10.7845 4.67129 11.1393 4.09412C11.685 3.20617 11.9818 1.74104 11.4497 1.56345C10.9175 1.38586 10.2588 2.47015 10.075 3.20617C9.85327 4.09412 9.49852 6.00323 9.01074 5.91443C8.78902 5.82563 8.96639 4.00533 9.01074 3.42815C9.05508 2.85098 9.18811 0.779085 8.56729 0.675492C8.03516 0.586696 7.76909 1.16387 7.72475 2.05182C7.68905 2.76682 8.16819 4.98208 7.99082 5.02647C7.81344 5.07087 7.38479 2.61222 6.48311 1.82983C5.81794 1.25266 5.41884 1.82983 5.55188 2.40701C5.67319 2.93329 7.25786 5.28096 7.50303 5.73684C7.81343 6.31401 8.03516 7.86793 7.81344 8.00112C7.59172 8.13432 6.1727 5.95883 5.72926 5.38166C5.28582 4.80449 4.79803 5.07087 4.84237 5.64804C4.88672 6.22521 5.95098 7.37956 6.43877 7.86793C6.92655 8.35631 7.54737 9.15547 7.81344 9.82143C8.07951 10.4874 8.16819 11.9081 8.03516 11.9081C7.90213 11.9081 7.63439 10.827 6.5718 9.59944C5.99532 8.93348 5.31551 8.16104 4.9754 7.95673C4.53196 7.69034 4.31023 7.82353 4.17721 7.91233C4.04419 8.00112 3.99983 8.31191 4.17721 8.5783C4.35458 8.84468 5.96891 10.3297 5.81795 10.443C5.64056 10.5762 4.35458 9.37746 4.13286 9.19986C3.91114 9.02227 3.51204 8.97788 3.42335 9.11107C3.30244 9.29264 3.29031 9.59944 3.46769 9.86583C3.64508 10.1322 4.08851 10.443 4.39892 10.665C4.7316 10.9029 5.42282 11.1375 5.3745 11.331C5.33015 11.5085 4.84237 11.3754 4.70933 11.3754C4.57629 11.3754 4.35457 11.4198 4.31023 11.6417C4.26588 11.8637 4.35457 12.0857 4.70933 12.2189C5.06408 12.3521 6.79351 12.1301 7.10392 12.3521Z" fill="#FF69A8" stroke="#8D2A54" stroke-width="0.186243"/>
</g>
<defs>
<filter id="filter0_d_1715_58713" x="2" y="0" width="13.5556" height="16.2222" filterUnits="userSpaceOnUse" color-interpolation-filters="sRGB">
<feFlood flood-opacity="0" result="BackgroundImageFix"/>
<feColorMatrix in="SourceAlpha" type="matrix" values="0 0 0 0 0 0 0 0 0 0 0 0 0 0 0 0 0 0 127 0" result="hardAlpha"/>
<feOffset dx="0.222222" dy="0.222222"/>
<feComposite in2="hardAlpha" operator="out"/>
<feColorMatrix type="matrix" values="0 0 0 0 0 0 0 0 0 0 0 0 0 0 0 0 0 0 0.25 0"/>
<feBlend mode="normal" in2="BackgroundImageFix" result="effect1_dropShadow_1715_58713"/>
<feBlend mode="normal" in="SourceGraphic" in2="effect1_dropShadow_1715_58713" result="shape"/>
</filter>
</defs>
</svg>
