<svg width="64" height="64" viewBox="0 0 64 64" fill="none" xmlns="http://www.w3.org/2000/svg">
<ellipse cx="32" cy="48.4531" rx="10.125" ry="6.32812" fill="#FAB140"/>
<path fill-rule="evenodd" clip-rule="evenodd" d="M5 25.2499C5 25.2499 5 25.25 5 25.25C5 40.1617 17.0883 52.25 32 52.25C46.9117 52.25 59 40.1617 59 25.25C59 25.25 59 25.2499 59 25.2499H5Z" fill="#FFBC55"/>
<ellipse cx="32" cy="25.25" rx="27" ry="16.0312" fill="#FAB140"/>
<path fill-rule="evenodd" clip-rule="evenodd" d="M9.22214 28.8455C9.21988 28.7722 9.21875 28.6987 9.21875 28.625C9.21875 21.6351 19.4183 15.9688 32 15.9688C44.5817 15.9688 54.7812 21.6351 54.7812 28.625C54.7812 28.6987 54.7801 28.7722 54.7779 28.8455C52.0234 34.556 42.8688 38.75 32 38.75C21.1311 38.75 11.9765 34.556 9.22214 28.8455Z" fill="#ADB267"/>
<path fill-rule="evenodd" clip-rule="evenodd" d="M10.9946 31.4348C10.9361 31.0651 10.9062 30.6907 10.9062 30.3125C10.9062 23.3226 21.1058 17.6562 33.6875 17.6562C43.9762 17.6562 52.6718 21.4454 55.4997 26.6489C54.2749 33.4474 44.2211 38.75 32 38.75C22.8531 38.75 14.9203 35.7796 10.9946 31.4348Z" fill="#C6CC76"/>
<path fill-rule="evenodd" clip-rule="evenodd" d="M32 41.2812C46.9117 41.2812 59 34.1038 59 25.25C59 16.3962 46.9117 9.21875 32 9.21875C17.0883 9.21875 5 16.3962 5 25.25C5 34.1038 17.0883 41.2812 32 41.2812ZM32 38.75C45.0477 38.75 55.625 32.7058 55.625 25.25C55.625 17.7942 45.0477 11.75 32 11.75C18.9523 11.75 8.375 17.7942 8.375 25.25C8.375 32.7058 18.9523 38.75 32 38.75Z" fill="#FFEFD6"/>
<ellipse cx="18.5" cy="26.5156" rx="4.21875" ry="2.10938" fill="#E1E791"/>
<ellipse cx="26.9375" cy="26.5156" rx="2.53125" ry="1.26562" fill="#E1E791"/>
<ellipse cx="22.2969" cy="32.4219" rx="2.10938" ry="1.26562" fill="#E1E791"/>
<ellipse cx="32" cy="48.4531" rx="10.125" ry="6.32812" fill="#D07F00"/>
<path fill-rule="evenodd" clip-rule="evenodd" d="M5 25.2499C5 25.2499 5 25.25 5 25.25C5 40.1617 17.0883 52.25 32 52.25C46.9117 52.25 59 40.1617 59 25.25C59 25.25 59 25.2499 59 25.2499H5Z" fill="#FFBC55"/>
<ellipse cx="32" cy="25.25" rx="27" ry="16.0312" fill="#FAB140"/>
<path fill-rule="evenodd" clip-rule="evenodd" d="M9.22214 28.8455C9.21988 28.7722 9.21875 28.6987 9.21875 28.625C9.21875 21.6351 19.4183 15.9688 32 15.9688C44.5817 15.9688 54.7812 21.6351 54.7812 28.625C54.7812 28.6987 54.7801 28.7722 54.7779 28.8455C52.0234 34.556 42.8688 38.75 32 38.75C21.1311 38.75 11.9765 34.556 9.22214 28.8455Z" fill="#ADB267"/>
<path fill-rule="evenodd" clip-rule="evenodd" d="M10.9946 31.4348C10.9361 31.0651 10.9062 30.6907 10.9062 30.3125C10.9062 23.3226 21.1058 17.6562 33.6875 17.6562C43.9762 17.6562 52.6718 21.4454 55.4997 26.6489C54.2749 33.4474 44.2211 38.75 32 38.75C22.8531 38.75 14.9203 35.7796 10.9946 31.4348Z" fill="#C6CC76"/>
<path fill-rule="evenodd" clip-rule="evenodd" d="M32 41.2812C46.9117 41.2812 59 34.1038 59 25.25C59 16.3962 46.9117 9.21875 32 9.21875C17.0883 9.21875 5 16.3962 5 25.25C5 34.1038 17.0883 41.2812 32 41.2812ZM32 38.75C45.0477 38.75 55.625 32.7058 55.625 25.25C55.625 17.7942 45.0477 11.75 32 11.75C18.9523 11.75 8.375 17.7942 8.375 25.25C8.375 32.7058 18.9523 38.75 32 38.75Z" fill="#FFEFD6"/>
<ellipse cx="18.5" cy="26.5156" rx="4.21875" ry="2.10938" fill="#E1E791"/>
<ellipse cx="26.9375" cy="26.5156" rx="2.53125" ry="1.26562" fill="#E1E791"/>
<ellipse cx="22.2969" cy="32.4219" rx="2.10938" ry="1.26562" fill="#E1E791"/>
</svg>
