<svg width="24" height="24" viewBox="0 0 24 24" fill="none" xmlns="http://www.w3.org/2000/svg">
<path d="M1.64473 17.3744C1.33957 19.0023 2.66191 18.7988 3.57736 18.5953C5.30656 17.9848 8.5615 15.1869 9.78211 15.3395C10.5958 15.4412 11.1044 18.2901 11.4096 19.2058C11.7147 20.1215 12.4268 21.9529 13.1388 22.7668C13.8508 23.5808 14.7663 23.1738 15.0714 22.1563C15.3766 21.1389 14.7663 16.3569 15.2748 14.8308C15.7834 13.3046 19.9538 12.9994 21.3779 12.2871C22.8019 11.5749 24.5311 10.1505 22.4968 9.33657C20.4624 8.52261 15.4783 9.74354 14.9697 8.92959C14.4611 8.11563 15.1731 2.5197 14.6645 1.40052C14.156 0.281329 13.1388 0.993538 12.7319 1.40052C12.325 1.80749 11.4096 3.63889 11.0027 4.75808C10.5958 5.87726 10.189 7.91215 9.17181 7.91215C8.15463 7.91215 7.44261 6.48773 6.93402 5.77552C6.42544 5.06331 5.6117 2.62145 4.39109 2.31621C3.17048 2.01098 2.96705 3.53714 2.86533 4.3511C2.76361 5.16505 3.06877 6.69122 3.57735 7.70866C4.28937 9.13308 5.91685 10.8627 5.91685 11.7784C5.91685 12.9994 1.91175 15.9499 1.64473 17.3744Z" fill="#F98585" stroke="#AA3737" stroke-width="0.296689"/>
<path d="M13.9093 1.33691C12.7284 3.51966 11.2255 9.56695 11.2255 10.9983M11.2255 10.9983C12.6926 11.6781 20.7438 10.211 22.6402 10.3184M11.2255 10.9983C11.0037 12.6443 13.7303 19.0494 13.9093 22.5919M11.2255 10.9983C10.0805 10.8219 3.67539 16.151 2.24408 18.0832M11.2255 10.9983C7.43258 9.96056 4.03322 7.20528 4.10478 2.83979" stroke="#AA3737" stroke-width="0.296689" stroke-dasharray="0.67 0.59"/>
</svg>
