<svg width="48" height="48" viewBox="0 0 48 48" fill="none" xmlns="http://www.w3.org/2000/svg">
<g filter="url(#filter0_d_1116_19373)">
<rect x="4.5" y="16.875" width="39" height="24" rx="2.25" fill="#CB8252"/>
<path d="M6.75 40.875H12.375V42.75C12.375 43.1642 12.0392 43.5 11.625 43.5H7.5C7.08579 43.5 6.75 43.1642 6.75 42.75V40.875Z" fill="#F29C1F"/>
<path d="M4.5 7.875C4.5 6.01104 6.01104 4.5 7.875 4.5H40.125C41.989 4.5 43.5 6.01104 43.5 7.875V10.5H4.5V7.875Z" fill="#CB8252"/>
<path d="M8.625 16.875H12.375V40.875H8.625V16.875Z" fill="#FFBC55"/>
<path d="M20.625 16.875H27.375V25.875H20.625V16.875Z" fill="#FFBC55"/>
<path d="M23.25 25.5H24.75V32.625H23.25V25.5Z" fill="#FFBC55"/>
<path d="M35.625 16.875H39.375V40.875H35.625V16.875Z" fill="#FFBC55"/>
<path d="M34.125 4.5H39.375V10.5H34.125V4.5Z" fill="#FFBC55"/>
<path d="M8.625 4.5H13.875V10.5H8.625V4.5Z" fill="#FFBC55"/>
<path d="M35.625 40.875H41.25V42.75C41.25 43.1642 40.9142 43.5 40.5 43.5H36.375C35.9608 43.5 35.625 43.1642 35.625 42.75V40.875Z" fill="#F29C1F"/>
<path d="M4.5 10.5H43.5L40.1484 16.875H7.85156L4.5 10.5Z" fill="#B66E00"/>
<path d="M20.625 8.625C20.625 7.79657 21.2966 7.125 22.125 7.125H25.875C26.7034 7.125 27.375 7.79657 27.375 8.625V10.5H20.625V8.625Z" fill="#FFBC55"/>
<path fill-rule="evenodd" clip-rule="evenodd" d="M24 34.6641C26.9448 34.6641 29.332 32.2768 29.332 29.332C29.332 26.3872 26.9448 24 24 24C21.0552 24 18.668 26.3872 18.668 29.332C18.668 32.2768 21.0552 34.6641 24 34.6641ZM24 32.155C25.559 32.155 26.8228 30.8911 26.8228 29.3321C26.8228 27.7731 25.559 26.5093 24 26.5093C22.441 26.5093 21.1772 27.7731 21.1772 29.3321C21.1772 30.8911 22.441 32.155 24 32.155Z" fill="#F29C1F"/>
</g>
<defs>
<filter id="filter0_d_1116_19373" x="0" y="0" width="49" height="50" filterUnits="userSpaceOnUse" color-interpolation-filters="sRGB">
<feFlood flood-opacity="0" result="BackgroundImageFix"/>
<feColorMatrix in="SourceAlpha" type="matrix" values="0 0 0 0 0 0 0 0 0 0 0 0 0 0 0 0 0 0 127 0" result="hardAlpha"/>
<feOffset dx="1" dy="2"/>
<feComposite in2="hardAlpha" operator="out"/>
<feColorMatrix type="matrix" values="0 0 0 0 0 0 0 0 0 0 0 0 0 0 0 0 0 0 0.25 0"/>
<feBlend mode="normal" in2="BackgroundImageFix" result="effect1_dropShadow_1116_19373"/>
<feBlend mode="normal" in="SourceGraphic" in2="effect1_dropShadow_1116_19373" result="shape"/>
</filter>
</defs>
</svg>
