<svg viewBox="0 0 381 284" fill="none" xmlns="http://www.w3.org/2000/svg">
    <path
        d="M39.6775 113.5C125.181 40.2114 275.678 96 314.178 149.5C326.179 130.5 347.481 98.8546 369.178 113.5C389.178 127 371.178 153 357.178 164.5C367.178 171.5 385.178 210 361.678 219.5C339.19 228.591 320.345 199.833 314.178 183C300.679 203.5 287.178 225 248.178 250C191.17 286.543 128.178 291 59.1771 264C5.661 243.059 -26.8224 170.5 39.6775 113.5Z"
        fill="#AF75CC" />
    <path fill-rule="evenodd" clip-rule="evenodd"
        d="M298.866 205.057C288.065 219.019 273.493 233.772 248.178 250C191.17 286.543 128.178 291 59.1771 264C44.0251 258.071 30.5592 248.004 20.5485 235.324C44.5337 249.192 79.505 258.844 134.685 261.576C208.949 265.252 264.108 228.642 298.866 205.057Z"
        fill="#9966B3" />
    <path
        d="M39.6775 113.5C125.181 40.2114 275.678 96 314.178 149.5C326.179 130.5 347.481 98.8546 369.178 113.5C389.178 127 371.178 153 357.178 164.5C367.178 171.5 385.178 210 361.678 219.5C339.678 228.394 320.345 199.833 314.178 183C300.679 203.5 287.178 225 248.178 250C191.17 286.543 128.178 291 59.1771 264C5.661 243.059 -26.8224 170.5 39.6775 113.5Z"
        stroke="#573A66" stroke-width="4" />
    <circle cx="54.0888" cy="164.911" r="16.5888" fill="white" stroke="#573A66" stroke-width="3" />
    <circle cx="54.0888" cy="164.911" r="11.3166" fill="black" />
    <circle cx="57.8611" cy="156.109" r="3.7722" fill="white" />
    <circle cx="50.9453" cy="161.768" r="1.8861" fill="white" />
    <circle cx="131.089" cy="165.089" r="16.4112" fill="white" stroke="#573A66" stroke-width="3" />
    <circle cx="131.089" cy="165.089" r="11.1834" fill="black" />
    <circle cx="127.982" cy="161.982" r="1.8639" fill="white" />
    <circle cx="134.817" cy="156.391" r="3.7278" fill="white" />
    <path d="M84 175C84 179.333 85.9 188 93.5 188C101.1 188 103 179.333 103 175" stroke="#573A66"
        stroke-width="4" stroke-linecap="round" />
    <path
        d="M174.177 201.501C174.158 200.397 173.247 199.517 172.142 199.537C171.038 199.556 170.158 200.468 170.178 201.572L174.177 201.501ZM196.235 228.399L195.609 226.5L196.235 228.399ZM199.319 206.421L199.708 204.459C198.873 204.294 198.026 204.674 197.595 205.408C197.164 206.141 197.244 207.066 197.795 207.715L199.319 206.421ZM192.653 180.004C191.55 179.938 190.603 180.779 190.537 181.881C190.472 182.984 191.313 183.931 192.415 183.996L192.653 180.004ZM170.178 201.572C170.289 207.853 173.243 216.037 177.828 222.124C182.37 228.153 189.137 232.847 196.862 230.299L195.609 226.5C190.38 228.225 185.22 225.288 181.023 219.717C176.87 214.204 174.272 206.82 174.177 201.501L170.178 201.572ZM196.862 230.299C199.908 229.294 202.075 227.516 203.454 225.266C204.812 223.048 205.329 220.499 205.329 218.021C205.329 213.136 203.32 208.043 200.844 205.127L197.795 207.715C199.637 209.886 201.329 214.053 201.329 218.021C201.329 219.968 200.921 221.744 200.043 223.176C199.185 224.577 197.805 225.775 195.609 226.5L196.862 230.299ZM198.931 208.383C202.696 209.128 208.467 209.565 213.527 208.35C216.07 207.74 218.564 206.681 220.517 204.908C222.512 203.098 223.842 200.629 224.135 197.446L220.151 197.08C219.95 199.269 219.081 200.81 217.828 201.946C216.534 203.121 214.733 203.947 212.593 204.461C208.287 205.495 203.14 205.138 199.708 204.459L198.931 208.383ZM224.135 197.446C224.449 194.026 223.027 191.205 220.778 189.002C218.576 186.845 215.524 185.209 212.281 183.964C205.782 181.469 197.912 180.316 192.653 180.004L192.415 183.996C197.437 184.295 204.865 185.401 210.847 187.698C213.845 188.849 216.329 190.243 217.979 191.86C219.583 193.431 220.331 195.128 220.151 197.08L224.135 197.446Z"
        fill="#573A66" />
    <path
        d="M190.271 34.2154C199.475 38.0339 202.446 51.0662 195.27 64.7994C207.952 51.766 222.009 49.1427 229.355 60.7394C238.08 74.5126 214.363 85.685 203.353 90.8718L203.133 90.9754L145.162 81.5357C136.774 70.4976 122.958 46.3186 134.801 37.9082C146.643 29.4978 159.31 44.5969 164.162 53.1977C165.575 44.3268 176.541 28.5194 190.271 34.2154Z"
        fill="#AF75CC" />
    <path
        d="M145.162 80.8448C136.774 69.8066 122.958 45.6277 134.801 37.2173C146.643 28.8069 159.31 43.9059 164.163 52.5068C165.575 43.6359 176.542 27.8285 190.271 33.5245C199.476 37.3429 202.446 50.3753 195.27 64.1085C207.952 51.0751 222.009 48.4518 229.355 60.0485C238.138 73.9141 214.044 85.1439 203.133 90.2845"
        stroke="#573A66" stroke-width="4" stroke-linecap="round" stroke-linejoin="round" />
    <path
        d="M26.5891 187.019C29.2801 187.847 31.8901 188.113 33.9443 187.856C35.9474 187.605 37.6358 186.819 38.0948 185.326C38.5539 183.833 37.5988 182.234 36.0827 180.901C34.5278 179.535 32.2191 178.289 29.5281 177.461C26.837 176.634 24.227 176.367 22.1729 176.624C20.1697 176.875 18.4813 177.661 18.0223 179.154C17.5632 180.647 18.5183 182.246 20.0345 183.579C21.5893 184.946 23.898 186.192 26.5891 187.019Z"
        fill="#FFC5DD" stroke="#FFC5DD" />
    <path
        d="M158.528 187.019C155.837 187.847 153.227 188.113 151.173 187.856C149.17 187.605 147.481 186.819 147.022 185.326C146.563 183.833 147.518 182.234 149.035 180.901C150.589 179.535 152.898 178.289 155.589 177.461C158.28 176.634 160.89 176.367 162.944 176.624C164.947 176.875 166.636 177.661 167.095 179.154C167.554 180.647 166.599 182.246 165.083 183.579C163.528 184.946 161.219 186.192 158.528 187.019Z"
        fill="#FFC5DD" stroke="#FFC5DD" />
</svg>