<svg width="213" height="155" viewBox="0 0 213 155" fill="none" xmlns="http://www.w3.org/2000/svg">
<g filter="url(#filter0_d_2040_35511)">
<path d="M131.863 71.6095C113.201 55.7186 80.3515 67.815 71.948 79.4152C69.3286 75.2955 64.679 68.434 59.9432 71.6095C55.5778 74.5367 59.5067 80.1741 62.5624 82.6676C60.3797 84.1854 56.4509 92.5332 61.5802 94.593C66.4886 96.5641 70.602 90.3288 71.948 86.6789C74.8945 91.1238 77.8414 95.7856 86.3539 101.206C98.797 109.13 112.546 110.096 127.607 104.242C139.288 99.7013 146.378 83.9686 131.863 71.6095Z" fill="#F98585"/>
<path fill-rule="evenodd" clip-rule="evenodd" d="M75.29 91.4619C77.6476 94.4893 80.8281 97.6881 86.3537 101.207C98.7968 109.13 112.546 110.097 127.607 104.242C130.914 102.957 133.854 100.774 136.039 98.0247C130.803 101.032 123.17 103.124 111.126 103.717C94.9162 104.514 82.8767 96.5758 75.29 91.4619Z" fill="#F06A6A"/>
<path d="M131.863 71.6095C113.201 55.7186 80.3515 67.815 71.948 79.4152C69.3286 75.2955 64.679 68.434 59.9432 71.6095C55.5778 74.5367 59.5067 80.1741 62.5624 82.6676C60.3797 84.1854 56.4509 92.5332 61.5802 94.593C66.3822 96.5214 70.602 90.3288 71.948 86.6789C74.8945 91.1238 77.8414 95.7856 86.3539 101.206C98.797 109.13 112.546 110.096 127.607 104.242C139.288 99.7013 146.378 83.9686 131.863 71.6095Z" stroke="#AA3737" stroke-width="0.997417"/>
<path d="M128.589 86.4032C126.637 86.4032 125.051 84.8305 125.051 82.8852C125.051 80.9399 126.637 79.3672 128.589 79.3672C130.542 79.3672 132.128 80.9399 132.128 82.8852C132.128 84.8305 130.542 86.4032 128.589 86.4032Z" fill="white" stroke="#AA3737" stroke-width="0.748063"/>
<ellipse cx="2.3737" cy="2.35799" rx="2.3737" ry="2.35799" transform="matrix(-1 0 0 1 130.963 80.5273)" fill="black"/>
<ellipse cx="0.791231" cy="0.785995" rx="0.791231" ry="0.785995" transform="matrix(-1 0 0 1 128.589 80.2656)" fill="white"/>
<ellipse cx="0.395616" cy="0.392997" rx="0.395616" ry="0.392997" transform="matrix(-1 0 0 1 129.645 81.8369)" fill="white"/>
<path d="M112.001 86.4032C110.048 86.4032 108.462 84.8305 108.462 82.8852C108.462 80.9399 110.048 79.3672 112.001 79.3672C113.953 79.3672 115.54 80.9399 115.54 82.8852C115.54 84.8305 113.953 86.4032 112.001 86.4032Z" fill="white" stroke="#AA3737" stroke-width="0.748063"/>
<ellipse cx="2.3737" cy="2.35799" rx="2.3737" ry="2.35799" transform="matrix(-1 0 0 1 114.374 80.5273)" fill="black"/>
<ellipse cx="0.395616" cy="0.392997" rx="0.395616" ry="0.392997" transform="matrix(-1 0 0 1 113.056 81.8369)" fill="white"/>
<ellipse cx="0.791231" cy="0.785995" rx="0.791231" ry="0.785995" transform="matrix(-1 0 0 1 112 80.2656)" fill="white"/>
<path d="M122.259 84.9443C122.259 85.8839 121.844 87.7631 120.185 87.7631C118.526 87.7631 118.112 85.8839 118.112 84.9443" stroke="#AA3737" stroke-width="0.997417" stroke-linecap="round"/>
<path d="M102.444 90.6891C102.449 90.4137 102.676 90.1944 102.951 90.1993C103.227 90.2042 103.446 90.4315 103.441 90.7069L102.444 90.6891ZM97.6914 96.5225L97.8467 96.0486L97.6914 96.5225ZM97.0182 91.757L96.9219 91.2676C97.1302 91.2267 97.3416 91.322 97.4487 91.5053C97.5558 91.6886 97.5352 91.9195 97.3973 92.0809L97.0182 91.757ZM98.4698 85.9641C98.7448 85.9479 98.9808 86.1576 98.9971 86.4325C99.0133 86.7075 98.8035 86.9435 98.5286 86.9598L98.4698 85.9641ZM103.441 90.7069C103.416 92.0852 102.766 93.8732 101.758 95.2023C100.76 96.5178 99.2588 97.561 97.536 96.9964L97.8467 96.0486C98.9514 96.4107 100.053 95.7991 100.963 94.5996C101.863 93.4134 102.423 91.8258 102.444 90.6891L103.441 90.7069ZM97.536 96.9964C96.8585 96.7744 96.373 96.3801 96.0635 95.8783C95.759 95.3845 95.6443 94.8187 95.6443 94.2721C95.6443 93.1971 96.0884 92.0775 96.639 91.433L97.3973 92.0809C97.0055 92.5396 96.6417 93.4277 96.6417 94.2721C96.6417 94.6853 96.7289 95.0571 96.9125 95.3548C97.0911 95.6445 97.3798 95.8956 97.8467 96.0486L97.536 96.9964ZM97.1144 92.2463C96.2878 92.4088 95.0189 92.5048 93.9033 92.2388C93.3424 92.105 92.7875 91.8719 92.3509 91.4783C91.9035 91.0751 91.6052 90.5246 91.5398 89.8172L92.533 89.7254C92.5753 90.1829 92.7572 90.5018 93.0187 90.7375C93.291 90.9829 93.6735 91.1586 94.1347 91.2686C95.0635 91.4901 96.1777 91.414 96.9219 91.2676L97.1144 92.2463ZM91.5398 89.8172C91.4689 89.0504 91.791 88.42 92.292 87.9325C92.7814 87.4563 93.4564 87.098 94.1678 86.8266C95.594 86.2826 97.3184 86.032 98.4698 85.9641L98.5286 86.9598C97.436 87.0242 95.8213 87.2634 94.5233 87.7585C93.8725 88.0068 93.3391 88.3054 92.9876 88.6474C92.6476 88.9782 92.4962 89.3274 92.533 89.7254L91.5398 89.8172Z" fill="#AA3737"/>
<path d="M98.9928 54.4189C96.9838 55.2469 96.3355 58.0726 97.9017 61.0503C95.1337 58.2243 92.0655 57.6556 90.462 60.17C88.5576 63.1564 93.7342 65.5789 96.1374 66.7035L96.1854 66.726L108.839 64.6792C110.67 62.2858 113.685 57.0432 111.1 55.2196C108.516 53.396 105.751 56.6699 104.692 58.5348C104.383 56.6113 101.99 53.1839 98.9928 54.4189Z" fill="#F98585"/>
<path d="M108.839 64.5298C110.67 62.1364 113.685 56.8938 111.1 55.0702C108.516 53.2466 105.751 56.5205 104.692 58.3854C104.383 56.4619 101.99 53.0345 98.9928 54.2695C96.9838 55.0974 96.3355 57.9232 97.9017 60.9009C95.1337 58.0749 92.0655 57.5061 90.462 60.0206C88.5448 63.027 93.804 65.4619 96.1854 66.5766" stroke="#AA3737" stroke-width="0.997417" stroke-linecap="round" stroke-linejoin="round"/>
<path d="M134.725 87.5659C134.136 87.7458 133.564 87.804 133.113 87.7479C132.888 87.7199 132.687 87.6626 132.528 87.5727C132.369 87.4824 132.246 87.3551 132.194 87.1879C132.142 87.0207 132.172 86.8468 132.253 86.683C132.333 86.5201 132.467 86.3605 132.638 86.2115C132.979 85.9134 133.485 85.6424 134.074 85.4625C134.663 85.2826 135.235 85.2245 135.686 85.2806C135.911 85.3086 136.112 85.3659 136.271 85.4557C136.431 85.5461 136.553 85.6733 136.605 85.8405C136.657 86.0078 136.627 86.1816 136.546 86.3454C136.466 86.5084 136.332 86.668 136.161 86.8169C135.82 87.115 135.314 87.3861 134.725 87.5659Z" fill="#FFC5DD" stroke="#FFC5DD" stroke-width="0.249354"/>
<path d="M105.917 87.5659C106.506 87.7458 107.078 87.804 107.529 87.7479C107.754 87.7199 107.955 87.6626 108.114 87.5727C108.273 87.4824 108.396 87.3551 108.448 87.1879C108.5 87.0207 108.47 86.8468 108.389 86.683C108.309 86.5201 108.175 86.3605 108.004 86.2115C107.663 85.9134 107.157 85.6424 106.568 85.4625C105.979 85.2826 105.407 85.2245 104.956 85.2806C104.731 85.3086 104.53 85.3659 104.371 85.4557C104.212 85.5461 104.089 85.6733 104.037 85.8405C103.985 86.0078 104.015 86.1816 104.096 86.3454C104.176 86.5084 104.31 86.668 104.481 86.8169C104.822 87.115 105.328 87.3861 105.917 87.5659Z" fill="#FFC5DD" stroke="#FFC5DD" stroke-width="0.249354"/>
</g>
<g style="mix-blend-mode:multiply" opacity="0.8">
<g style="mix-blend-mode:soft-light">
<path fill-rule="evenodd" clip-rule="evenodd" d="M47.7054 96.171C48.38 97.4517 47.8887 99.0368 46.608 99.7113L44.9516 100.584L43.7302 98.2649L42.5088 95.946L44.1651 95.0736C45.4458 94.399 47.0309 94.8904 47.7054 96.171ZM43.7302 98.2649C45.5612 101.741 44.2275 106.043 40.7514 107.874L12.9249 122.531C9.4488 124.362 5.14653 123.029 3.31555 119.553C1.48456 116.076 2.81822 111.774 6.29435 109.943L34.1208 95.2861C37.597 93.4551 41.8992 94.7888 43.7302 98.2649Z" fill="#C8C8C8"/>
</g>
<g style="mix-blend-mode:soft-light">
<path d="M46.6079 99.7117C47.8886 99.0371 48.3799 97.452 47.7053 96.1714C47.0308 94.8907 45.4457 94.3993 44.165 95.0739L42.5087 95.9464L44.9515 100.584L46.6079 99.7117Z" fill="#C8C8C8"/>
</g>
<g style="mix-blend-mode:soft-light">
<path d="M46.6079 99.7117C47.8886 99.0371 48.3799 97.452 47.7053 96.1714C47.0308 94.8907 45.4457 94.3993 44.165 95.0739L3.36232 116.566C2.66187 116.935 2.39313 117.802 2.76208 118.502L3.86884 120.603C4.23779 121.304 5.10471 121.573 5.80517 121.204L46.6079 99.7117Z" fill="#C8C8C8"/>
</g>
</g>
<g style="mix-blend-mode:multiply" opacity="0.8">
<g style="mix-blend-mode:soft-light">
<path fill-rule="evenodd" clip-rule="evenodd" d="M101.29 151.498C103.868 153.957 107.951 153.861 110.41 151.283L124.263 136.763C126.722 134.185 126.626 130.102 124.049 127.643L100.93 105.586C95.4143 100.324 87.2018 99.6402 80.9862 103.423L78.6465 101.191C77.501 100.098 75.6862 100.141 74.5932 101.287L72.6142 103.361C71.5212 104.507 71.5639 106.321 72.7095 107.414L75.0557 109.653C71.5897 116.035 72.6647 124.188 78.1711 129.441L101.29 151.498Z" fill="#C8C8C8"/>
</g>
<g style="mix-blend-mode:soft-light">
<path d="M74.5937 101.286C75.6867 100.141 77.5015 100.098 78.6471 101.191L80.7214 103.17C81.867 104.263 81.9097 106.078 80.8167 107.223L78.8377 109.298C77.7447 110.443 75.9299 110.486 74.7843 109.393L72.71 107.414C71.5644 106.321 71.5217 104.506 72.6147 103.361L74.5937 101.286Z" fill="#C8C8C8"/>
</g>
<g style="mix-blend-mode:soft-light">
<path fill-rule="evenodd" clip-rule="evenodd" d="M107.968 152.887C108.867 152.558 109.705 152.022 110.41 151.283L124.264 136.763C124.958 136.035 125.448 135.188 125.737 134.291C125.686 134.202 125.624 134.123 125.552 134.054C124.12 132.687 118.972 135.759 114.053 140.914C109.135 146.07 106.309 151.356 107.741 152.723C107.808 152.787 107.884 152.842 107.968 152.887Z" fill="#C8C8C8"/>
</g>
<g style="mix-blend-mode:soft-light">
<path d="M100.541 105.239C100.814 104.953 101.268 104.942 101.554 105.215C101.841 105.489 101.851 105.942 101.578 106.229L78.8193 130.083C78.5461 130.37 78.0924 130.38 77.806 130.107C77.5196 129.834 77.5089 129.38 77.7822 129.094L100.541 105.239Z" fill="#C8C8C8"/>
</g>
<g style="mix-blend-mode:soft-light">
<path d="M108.838 113.155C109.111 112.869 109.565 112.858 109.851 113.131C110.138 113.405 110.148 113.858 109.875 114.145L87.1162 137.999C86.843 138.286 86.3893 138.296 86.1029 138.023C85.8165 137.75 85.8058 137.296 86.0791 137.01L108.838 113.155Z" fill="#C8C8C8"/>
</g>
<g style="mix-blend-mode:soft-light">
<path d="M117.135 121.07C117.408 120.784 117.862 120.773 118.148 121.047C118.435 121.32 118.446 121.773 118.172 122.06L95.4136 145.914C95.1403 146.201 94.6867 146.212 94.4003 145.938C94.1138 145.665 94.1032 145.211 94.3764 144.925L117.135 121.07Z" fill="#C8C8C8"/>
</g>
</g>
<g style="mix-blend-mode:multiply">
<path d="M87.4317 130.969C82.272 130.969 76.2046 128.582 73.8159 127.389C88.1483 118.795 81.6987 105.188 80.9821 91.5817C80.2655 77.9751 91.7314 73.6783 107.497 66.5169C123.263 59.3555 135.445 33.5745 142.611 30.7099C149.778 27.8454 152.644 35.7229 155.51 37.1552C166.976 41.452 175.576 54.3425 177.009 63.6523C178.442 72.9621 169.126 80.8396 166.26 88.001C163.393 95.1624 166.26 99.4593 164.827 103.04C163.393 106.621 149.061 105.188 144.761 105.188C140.461 105.188 140.461 110.917 138.312 110.917C136.162 110.917 131.145 97.3108 135.445 91.5817C139.745 85.8526 161.243 55.7748 152.644 47.1811C144.045 38.5875 138.312 52.9102 133.295 68.6653C128.279 84.4204 102.481 84.4204 98.8976 88.7172C95.3145 93.014 101.764 106.621 101.047 113.782C100.331 120.943 93.8813 130.969 87.4317 130.969Z" fill="#C8C8C8"/>
</g>
<g style="mix-blend-mode:multiply">
<path d="M123.554 86.9602C131.855 83.593 143.613 85.1568 154.611 90.0539C164.489 96.7869 171.144 91.0715 184.484 90.476C197.823 89.8806 209.514 91.8407 209.908 94.3659C210.894 100.679 209.275 102.295 206.151 102.252C197.818 102.14 192.682 96.2851 185.797 99.7102C178.734 103.224 170.481 102.392 165.638 105.786C160.795 109.181 159.895 135.374 174.225 128.832C188.555 122.289 205.148 137.622 208.473 140.894C211.798 144.166 202.42 148.559 201.094 146.067C191.319 127.705 172.443 137.084 163.351 140.305C154.26 143.526 141.846 136.119 132.724 133.408C123.602 130.698 102.486 141.296 95.9004 136.808C89.315 132.319 100.583 123.371 102.069 113.225C103.555 103.079 98.3241 89.2367 102.64 86.5619C106.955 83.8872 115.253 90.3275 123.554 86.9602Z" fill="#C8C8C8"/>
</g>
<g style="mix-blend-mode:multiply">
<path fill-rule="evenodd" clip-rule="evenodd" d="M100.44 46.1012C101.126 41.2597 102.959 37.5742 104.452 34.5715C106.086 31.2861 107.313 28.8181 106.187 26.5479C104.825 23.3438 96.289 23.6113 87.8337 23.8763C82.9112 24.0306 78.0161 24.184 74.5799 23.6511C66.9443 22.4668 53.5459 29.9973 45.7718 34.3666C44.0379 35.3411 42.5839 36.1584 41.5359 36.6866C36.2442 39.354 34.607 46.3196 33.82 49.6678C33.7523 49.9557 33.6909 50.2169 33.634 50.4464C33.3304 51.6709 32.1281 52.2484 30.6785 52.9447C28.6989 53.8956 26.2579 55.0681 25.0139 58.4125C24.2343 60.5083 23.5488 64.0256 22.7532 68.1073C21.3495 75.3092 19.6033 84.2683 16.3938 90.2772C11.3654 99.6917 7.05531 109.106 12.0837 113.451C16.1065 116.928 22.38 112.003 25.0139 109.106C24.7744 111.762 25.4449 117.217 30.0423 117.797C35.7891 118.521 39.3808 111.279 43.6909 100.416C46.9797 92.1271 49.0137 91.4279 53.3035 89.9533C54.6357 89.4953 56.1854 88.9626 58.0579 88.1046C61.4645 86.5435 62.6014 84.8478 63.8285 83.0175C65.4477 80.6024 67.2241 77.9529 74.5799 75.069C87.5101 69.9997 99.0037 56.2399 100.44 46.1012ZM31.479 102.589C31.4349 102.722 31.3854 102.869 31.332 103.028C30.515 105.453 28.782 110.599 31.479 111.279C33.6341 111.279 37.9441 100.416 37.9441 96.7949C37.2856 97.7908 36.0232 98.6346 34.7799 99.4656C33.3108 100.448 31.8681 101.412 31.479 102.589ZM35.0704 76.5174C48.7192 80.8626 19.9853 109.83 15.675 106.934C13.7422 105.635 16.2833 101.323 18.5843 97.4188C19.9116 95.1667 21.159 93.0502 21.4218 91.7256C22.1401 88.1046 25.7317 71.4481 35.0704 76.5174Z" fill="#C8C8C8"/>
</g>
<g style="mix-blend-mode:multiply">
<path fill-rule="evenodd" clip-rule="evenodd" d="M135.865 51.9531C138.4 48.7822 141.274 46.925 143.616 45.412C146.179 43.7564 148.103 42.5128 148.248 40.4109C148.617 37.5408 142.349 34.1057 136.142 30.7031C132.528 28.7221 128.934 26.7522 126.681 24.9113C121.675 20.8205 108.841 20.5138 101.395 20.3359C99.7344 20.2962 98.3416 20.2629 97.3634 20.1955C92.4242 19.855 88.3085 24.141 86.3301 26.2011C86.16 26.3783 86.0056 26.539 85.868 26.6789C85.133 27.4257 84.0228 27.3279 82.6842 27.21C80.8563 27.0491 78.6023 26.8506 76.296 28.7139C74.8508 29.8815 72.8743 32.1056 70.5807 34.6867L70.5807 34.6868C66.5337 39.2409 61.4993 44.9062 56.6532 47.8401C49.0605 52.4367 41.9856 57.3385 43.78 62.5823C45.2154 66.7773 51.8137 65.9207 54.9334 64.968C53.6418 66.7653 51.8262 70.9517 54.8967 73.3192C58.7348 76.2786 64.3762 72.6253 72.0614 66.6876C77.9255 62.157 79.6866 62.5211 83.4009 63.289C84.5544 63.5274 85.8962 63.8048 87.6078 63.9867C90.7217 64.3175 92.256 63.5878 93.912 62.8002C96.0972 61.7609 98.4944 60.6207 105.013 61.6833C106.701 61.9584 108.445 62.0854 110.21 62.0809C112.112 60.9428 115.256 60.734 118.766 61.0988C126.017 59.484 132.601 56.0368 135.865 51.9531ZM62.0504 63.3048L62.0501 63.3051C60.4388 64.6928 57.0209 67.6367 58.6789 69.2686C60.2327 70.1841 67.9179 64.2464 69.4438 61.6568C68.5493 62.0893 67.2836 62.1564 66.0369 62.2225C64.5639 62.3006 63.1175 62.3773 62.3411 63.0536C62.2532 63.1301 62.1557 63.2141 62.0504 63.3048Z" fill="#C8C8C8"/>
</g>
<g style="mix-blend-mode:multiply">
<path fill-rule="evenodd" clip-rule="evenodd" d="M58.6118 66.6656C55.8674 69.657 52.8735 71.3146 50.4343 72.6651C47.7654 74.1428 45.7606 75.2528 45.4732 77.34C44.9109 80.1785 50.9302 84.0314 56.8925 87.8478C60.3637 90.0697 63.8155 92.2791 65.9381 94.2689C70.6547 98.6903 83.4376 99.868 90.8545 100.551C92.5088 100.704 93.896 100.832 94.8674 100.965C99.7721 101.64 104.169 97.644 106.283 95.723C106.465 95.5578 106.63 95.4079 106.777 95.2777C107.561 94.5826 108.662 94.7556 109.989 94.9641C111.802 95.2489 114.037 95.6 116.465 93.8977C117.986 92.8309 120.109 90.7462 122.573 88.3269L122.573 88.3268C126.92 84.0582 132.327 78.7479 137.361 76.15C145.249 72.0798 152.64 67.6698 151.206 62.3163C150.059 58.0335 143.418 58.4399 140.241 59.1785C141.651 57.4731 143.747 53.4196 140.845 50.849C137.216 47.6358 131.34 50.8974 123.269 56.2993C117.111 60.4211 115.379 59.9383 111.725 58.9198C110.59 58.6036 109.27 58.2357 107.575 57.938C104.491 57.3964 102.911 58.0202 101.205 58.6935C98.9542 59.5819 96.4851 60.5566 90.0537 59.0537C88.3887 58.6646 86.6569 58.4193 84.8956 58.304C82.9205 59.3103 79.7703 59.3051 76.2927 58.7026C68.9488 59.8211 62.1462 62.8131 58.6118 66.6656ZM133.027 60.3544L133.028 60.3541C134.729 59.079 138.339 56.3742 136.796 54.6334C135.308 53.6144 127.237 59.0163 125.539 61.4963C126.461 61.1256 127.728 61.1446 128.976 61.1633C130.451 61.1855 131.9 61.2072 132.72 60.5853C132.813 60.5149 132.916 60.4377 133.027 60.3544Z" fill="#C8C8C8"/>
</g>
<g style="mix-blend-mode:multiply">
<path fill-rule="evenodd" clip-rule="evenodd" d="M151.074 92.3961C153.437 99.2041 163.777 103.45 177.365 91.5162C179.472 89.7733 186.681 82.7162 187.024 70.6382C187.289 61.3176 181.548 58.7486 177.028 56.726C175.691 56.1276 174.461 55.5771 173.524 54.9136C171.496 53.4765 171.467 51.6982 171.436 49.7749C171.404 47.8093 171.37 45.6923 169.196 43.6332C166.889 41.4478 163.696 42.1806 160.779 42.8501C158.258 43.4286 155.943 43.9599 154.584 42.5206C153.272 41.1324 153.709 38.7254 154.139 36.3505C154.672 33.413 155.195 30.5246 152.392 29.6736C150.225 29.0159 148.188 25.2623 145.744 20.7567C142.469 14.7203 138.462 7.33417 132.427 4.23449C121.889 -1.17885 118.413 6.6255 117.842 10.3284C117.339 13.597 122.007 19.7292 124.186 22.5923L124.186 22.5923C124.476 22.9728 124.721 23.2955 124.905 23.5461C125.414 24.2409 126.502 25.3454 127.705 26.5666C130.2 29.101 133.191 32.1383 132.538 33.0609C131.569 34.428 127.468 31.5217 124.335 27.2486C121.202 22.9755 115.733 19.101 113.027 24.3703C111.296 27.74 115.867 33.4753 119.544 38.0888C121.617 40.6895 123.405 42.9338 123.621 44.1968C124.069 46.8246 126.6 49.7731 128.499 51.9844C129.131 52.7215 129.694 53.3767 130.085 53.9109C130.734 54.7958 130.987 56.9856 131.283 59.5512C131.702 63.1794 132.208 67.559 134.043 70.0621C135.609 72.1986 138.144 72.968 140.679 73.7374C143.214 74.5068 145.749 75.2762 147.316 77.4127C149.068 79.8024 149.296 82.0762 149.571 84.8071C149.787 86.9593 150.032 89.3954 151.074 92.3961ZM139.518 24.6586C134.475 30.3264 120.206 17.1363 122.514 9.53122C124.822 1.92612 145.33 16.4557 139.518 24.6586ZM130.23 40.6662C129.062 40.8654 122.625 38.358 120.46 32.7178C118.296 27.0776 118.097 25.9097 119.265 25.7104C120.17 25.556 122.376 28.7914 124.052 31.2489C124.538 31.9614 124.979 32.6085 125.331 33.0887C125.783 33.705 126.56 34.466 127.385 35.2745C129.42 37.2686 131.75 39.5516 130.23 40.6662Z" fill="#C8C8C8"/>
</g>
<g style="mix-blend-mode:multiply">
<path fill-rule="evenodd" clip-rule="evenodd" d="M28.6347 97.5089C21.454 96.898 13.3693 104.616 18.7419 121.884C19.4771 124.517 22.9907 133.974 33.8843 139.201C42.2909 143.235 46.9732 139.036 50.6598 135.73C51.7505 134.752 52.7539 133.852 53.7409 133.267C55.879 131.999 57.5152 132.696 59.2848 133.45C61.0933 134.22 63.0412 135.05 65.8065 133.902C68.7416 132.684 69.3711 129.469 69.9464 126.532C70.4434 123.994 70.8998 121.663 72.7679 121.007C74.5696 120.373 76.5908 121.751 78.5851 123.111C81.0518 124.792 83.4774 126.446 85.3953 124.231C86.8777 122.519 91.1352 122.186 96.2456 121.786C103.092 121.25 111.47 120.595 116.756 116.343C125.989 108.919 120.274 102.568 117.123 100.541C114.342 98.7512 106.842 100.52 103.339 101.346L103.339 101.346C102.874 101.456 102.479 101.549 102.176 101.615C101.334 101.797 99.8823 102.342 98.2774 102.943C94.9469 104.192 90.9554 105.689 90.3786 104.716C89.5238 103.275 93.8474 100.711 99.0254 99.5876C104.203 98.4643 109.968 95.0451 106.255 90.4288C103.881 87.4766 96.7825 89.3188 91.0721 90.8007C87.8531 91.6361 85.0753 92.3569 83.8338 92.0399C81.2509 91.3804 77.5277 92.4931 74.7353 93.3276C73.8045 93.6058 72.9771 93.853 72.3299 93.9934C71.2575 94.2261 69.1542 93.5661 66.6902 92.7929C63.2054 91.6994 58.9989 90.3794 55.9657 91.0375C53.3767 91.5991 51.6425 93.6019 49.9083 95.6046C48.1741 97.6073 46.4399 99.61 43.8509 100.172C40.9551 100.8 38.7851 100.084 36.1787 99.2234C34.1246 98.5455 31.7996 97.7781 28.6347 97.5089ZM95.2143 114.511C92.0883 107.599 109.943 99.9301 115.951 105.133C121.959 110.335 100.343 123.157 95.2143 114.511ZM84.3702 99.5136C84.6634 98.3657 89.5728 93.5055 95.6056 93.8232C101.638 94.141 102.786 94.4341 102.493 95.582C102.266 96.472 98.4129 97.1709 95.4861 97.7019C94.6376 97.8558 93.867 97.9956 93.2852 98.1218C92.5383 98.2838 91.5271 98.6837 90.4528 99.1085C87.8033 100.156 84.7699 101.356 84.3702 99.5136Z" fill="#C8C8C8"/>
</g>
<defs>
<filter id="filter0_d_2040_35511" x="57.5015" y="47" width="83.2469" height="61.9968" filterUnits="userSpaceOnUse" color-interpolation-filters="sRGB">
<feFlood flood-opacity="0" result="BackgroundImageFix"/>
<feColorMatrix in="SourceAlpha" type="matrix" values="0 0 0 0 0 0 0 0 0 0 0 0 0 0 0 0 0 0 127 0" result="hardAlpha"/>
<feOffset dx="0.249354" dy="0.498708"/>
<feComposite in2="hardAlpha" operator="out"/>
<feColorMatrix type="matrix" values="0 0 0 0 0 0 0 0 0 0 0 0 0 0 0 0 0 0 0.25 0"/>
<feBlend mode="normal" in2="BackgroundImageFix" result="effect1_dropShadow_2040_35511"/>
<feBlend mode="normal" in="SourceGraphic" in2="effect1_dropShadow_2040_35511" result="shape"/>
</filter>
</defs>
</svg>
